<svg xmlns="http://www.w3.org/2000/svg" xml:space="preserve" fill-rule="evenodd" stroke-linejoin="round" stroke-miterlimit="2" clip-rule="evenodd" viewBox="0 0 38 38">
    <path fill="none" d="M38 4.597A4.6 4.6 0 0 0 33.403 0H4.597A4.6 4.6 0 0 0 0 4.597v28.806A4.6 4.6 0 0 0 4.597 38h28.806A4.6 4.6 0 0 0 38 33.403V4.597Z"/>
    <path fill="#ffe271" d="M7.966 30.317s-2.692-1.384-2.269-3.338c.423-1.955 1.452-2.74 2.27-3.325.817-.586 6.82-.886 6.82-.886l9.962-.833s6.138.678 7.085 2.793c.975 2.177.541 3.218-1.812 4.831-2.356 1.616-21.916 1.699-22.056.758Z"/>
    <path fill="#626262" d="M24.817 21.339c2.132.244 4.33.661 6.134 1.718 1.528.896 2.533 2.966 1.692 4.727-.487 1.019-1.425 1.727-2.346 2.311-.962.593-2.18.689-3.363.845-5.607.741-11.388.851-16.909.411-.881-.071-1.94-.012-2.474-.579-1.355-.781-2.645-2.014-2.486-3.626.181-1.829 1.533-3.756 3.127-4.235 1.336-.402 2.767-.465 4.182-.581a81.19 81.19 0 0 1 2.314-.156l.059-.004 9.952-.832s.054-.003.118.001Zm-9.989 2.027-.403.022c-1.958.116-3.967.118-5.853.66-1.475.424-2.647 2.573-2.247 3.799.282.865 1.124 1.514 1.913 1.936 0 0 .037.095.226.149.976.265 2.028.262 3.065.31 5.179.237 10.426.19 15.511-.526 1.029-.145 2.082-.242 2.951-.867.938-.674 1.876-1.583 1.698-2.658-.222-1.347-1.333-2.266-3.005-2.811-1.278-.415-2.603-.676-3.938-.842l-.007-.001-9.911.829Zm-6.273 6.84c-.023-.123-.011-.043 0 0Z"/>
    <path fill="#ffe271" d="M9.541 24.651s-2.095-.762-1.73-2.716c.366-1.955 2.525-3.031 3.232-3.616.706-.586 4.389-1.217 4.389-1.217l9.642-2.25s4.679 1.94 5.081 4.21c.399 2.254.048 3.29-1.565 4.831-1.903 1.818-18.928 1.699-19.049.758Z"/>
    <path fill="#626262" d="M25.125 14.255c.214.029.11.011.348.116 1.909.845 3.92 1.916 4.913 3.635.28.485.392 1.053.462 1.636.124 1.036.029 2.129-.48 3.032-.615 1.091-1.507 1.975-2.797 2.34-3.473.985-7.245.909-10.847.906-2.279-.002-4.613.09-6.795-.426-.283-.067-.571-.155-.778-.356 0 0-2.4-1.315-1.894-3.476.406-1.738 2.187-2.9 3.467-3.854.858-.615 2.01-.768 3.116-1.005.481-.103.963-.198 1.447-.284l9.651-2.251s.102-.016.187-.013Zm-9.573 3.435c-.086.014-.171.03-.256.045-1.247.23-2.526.422-3.649.924-1.716.767-4.002 3.086-3.026 4.554.266.402.68.702 1.127.876 0 0 .48.264 1.05.346 3.949.561 8.023.376 11.923.079 1.73-.131 3.533-.187 5.088-.845 1.055-.446 1.77-1.648 1.879-2.742.123-1.239-.166-2.416-1.234-3.353-1.004-.882-2.193-1.536-3.422-2.088l-.014-.006-9.466 2.21Zm-5.42 6.865c-.018-.108-.009-.039 0 0Z"/>
    <path fill="#ffe271" d="M10.841 18.473s3.174 1.343 7.242.713c4.068-.631 8.981-1.595 9.312-4.613.331-3.017-3.926-7.412-6.024-7.586 0 0 .137 4.621-2.385 5.276-2.522.655-9.939.229-8.145 6.21Z"/>
    <path fill="#626262" d="M21.425 6.39c3.217.292 5.766 4.377 6.379 6.483.335 1.152.248 2.48-.501 3.472-1.142 1.512-3.156 2.171-5.083 2.656-3.828.965-7.85 1.547-11.597.031 0 0-.305-.2-.4-.536-.422-1.504-.401-3.263.88-4.505 2.006-1.945 5.224-1.706 7.653-2.288 1.795-.429 2.04-3.186 2.016-4.691 0 0 .1-.643.653-.622Zm.523 1.409c-.02.312-.051.622-.096.931a9.197 9.197 0 0 1-.13.72c-.333 1.519-1.001 3.055-2.827 3.45-1.944.421-3.978.328-5.916 1.254-.97.463-1.787 1.391-1.815 2.537-.011.447.061.892.171 1.324 0 0 .494.169.831.258 3.308.881 6.861.338 10.038-.505 1.89-.501 4.075-1.196 4.536-2.937.411-1.553-.653-3.163-1.592-4.352-.877-1.111-1.934-2.151-3.174-2.705 0 0-.021-.049-.026.025Z"/>
</svg>
