<svg xmlns="http://www.w3.org/2000/svg" xml:space="preserve" fill-rule="evenodd" stroke-linecap="round" stroke-linejoin="round" stroke-miterlimit="1.5" clip-rule="evenodd" viewBox="0 0 38 38">
    <path fill="none" d="M38 4.597A4.6 4.6 0 0 0 33.403 0H4.597A4.6 4.6 0 0 0 0 4.597v28.806A4.6 4.6 0 0 0 4.597 38h28.806A4.6 4.6 0 0 0 38 33.403V4.597Z"/>
    <path fill="#626262" d="M16.854 16.706s-3.526-2.428-3.67-2.846c-.144-.419-3.965-2.356-4.164-2.54-.294-.272-1.318-2.098-1.483-2.747.232-.737-.801 2.393-.801 2.393l-.299 2.069.857 3.318 1.481 1.779.277.442s.381 1.169.521 1.226c0 0 .307-.393.429-.472.121-.078.272-.359.272-.498l.032.144.123-.114.05.207s-.124.58-.107.636c.017.055.104-.006.104-.006l-.132.164-.017.206.113-.06-.095.129.004.167.129-.034-.105.176s.569 1.612 1.053 1.846c0 0 .096-.478.188-.561.092-.082.138-.836.138-.996l.043-.594-.256-.408.266.279.047.284.112-.015-.101.273-.008.116.172-.116-.156.227-.002.195.188-.179-.204.254s.411 1.465.925 1.761c0 0 .053-.044.053-.139 0-.094.331-.724.356-.848.024-.125.178-1.13.1-1.271l-.333-.385.323.259-.004-.212.207.159.042.62.385-.244-.339.387.01.226.356-.265-.301.322.031.237.157-.166-.105.257s.747 1.287 1.432 1.664c0 0-.003-.508.154-.649.156-.141.073-.822.073-.909 0 0 .369.923 1.351 1.637 0 0 .463-1.107.252-1.737 0 0-.101-.575-.085-.685.015-.109.162-.395.162-.395s-.155.482.585 1.108l.344.268.675-1.726-1.805-3.618Z"/>
    <path fill="#d0d0d0" stroke="#626262" stroke-width=".5" d="M8.185 17.514s-.064.405.094.502c.157.096.332.431.363.497.03.066.584.297.922.079l-.16-.16.265.13.102-.058-.254-.174s.309.19.458.169c0 0 .197-.086.299-.388l-.151-.007s.37-.212.382-.443c.012-.232.175-.846.135-.979-.039-.133.004-.43-.327-.025-.332.404-1.423.294-1.423.294l-.705.563Z"/>
    <path fill="#d0d0d0" stroke="#626262" stroke-width=".5" d="M7.041 15.524s-.337.381-.187.779c.15.398.788 1.442 1.561 1.382.773-.06 1.7-.245 2.018-1.394 0 0-.016-.68-.129-.884-.112-.203-.116-.299-.29.015-.174.315-.255.52-.865.711 0 0 .012.209.152.236 0 0-.244-.085-.273-.209l-.207.055s.149.234.226.233c0 0-.35-.112-.488-.246l-.296-.06.023.142-.228-.482-.662-.36-.355.082Z"/>
    <path fill="#d0d0d0" stroke="#626262" stroke-width=".5" d="M6.568 11.94s-.107 1.506.612 2.027c0 0 .24.717.585.847 0 0-.236-.334-.216-.585l.057-.017.102.174-.005-.164s.435.245.534.224l.374.41-.173-.278.096-.019.083.125-.009-.08s.554.118.803.111c.249-.007.78-.138 1.042-.332 0 0 .06-.013.003.138-.057.15-.364.858-.718 1.048-.354.19-.808.414-1.599.418-.792.005-1.307-.343-1.578-.861-.269-.515-.353-.658-.439-1.23l.446-1.956Z"/>
    <path fill="#d0d0d0" stroke="#626262" stroke-width=".5" d="M7.449 8.562s.041 1.627.129 1.722c0 0-.219.592-.186.702 0 0 .028-.361.222-.465 0 0 .092.62.175.673 0 0 .111.533.001.914l.16-.348.161.122s-.206.329-.109.664l.186-.413.077.066-.051.114.1-.055s.832.96 1.229 1.224l-.177-.196s.515.21.7-.034c0 0 .116-.062.06.124-.057.186-.471.802-1.389.812-1.288.014-2.406-1.436-2.567-2.175 0 0-.377-2.309 1.279-3.451Z"/>
    <path fill="#626262" d="M21.803 17.61s4.738-2.831 4.902-3.426c.164-.595 2.985 2.484 2.985 2.484l1.024 1.735s-.139 1.31-.532 1.839c0 0-.089-.103-.124-.126-.036-.024-.545-.497-.545-.819l-.105.194-.199-.249.057.266s.154 1.09.063 1.402c-.092.313-.702 1.598-1.05 1.85 0 0 .036-.117-.059-.296s-.244-.441-.238-.659c.007-.217-.052-.864-.052-.864s-.154 1.828-.966 2.292c0 0-.134-.394-.259-.549-.125-.156-.308-.772-.285-1.598.022-.827.004-.52.004-.52l-.2.311s-.128 1.252-.331 1.499c-.204.246-1.011 1.336-1.243 1.414 0 0-.078-.425-.157-.47-.078-.044-.263-.678-.171-.947 0 0-.637 1.171-1.374 1.529 0 0-.088-.661-.188-.778 0 0-.246-.728.035-1.46l-.08-.373s-.118.337-.223.431c-.105.094-.396.416-.415.552 0 0-.264-.251-.318-.853-.055-.601-.019-1.577.439-2.184l-.395-1.627Z"/>
    <path fill="#d0d0d0" d="M29.81 13.448s-1.406.844-3.105-1.346c0 0-1.193-1.985-1.28-2.226 0 0-.19-.38-.262.274 0 0-.016.741.036.891.053.149-1.031-2.457-.646-4.409-.122-.041-.725.805-.901 1.355 0 0-.166.502.116.899l-.192-.458s-.097-.021-.121.081c-.024.103-.129.316-.052.443 0 0-.078-.017-.07.108.008.125-.202 1.286-.182 1.408.021.123.383.76.468.792 0 0-.376-.384-.394-.301 0 0-.313-.414-.34-.993 0 0-.056-.272-.131.055-.076.327-.213 2.234.407 3.167.62.933 1.672 1.84 3.09 1.789 0 0-1.542.063-2.317-.544-.774-.607-.808-.639-.808-.639s-.133-.043-.051.149c.081.191.814 1.279 1.416 1.628.601.349.52.444 1.063.557 0 0-.708-.137-.783-.198-.075-.062-.195.016-.001.147s1.253.756 1.826.808c0 0-.359.113-.453.135-.094.022-.132.128.045.181.178.054 1.01.543 1.184.536.173-.007.451-.242.478-.3l-.138.272.294.021s.2-.318.182-.338c0 0 .152.273.122.32 0 0 1.059-.341 1.151-.556 0 0-.443.919-.683 1.072 0 0 .954.28 1.452-.301.497-.581.674-.672.631-1.064 0 0 .139.678-.011.987 0 0 .023.063.108.031.084-.031.838-.166.913-1.223a2.378 2.378 0 0 0-.734-1.91c-.228-.225-1.299-1.213-1.327-1.3Z"/>
    <path fill="#626262" d="m24.547 6.631.006.001-.008.046-.009.046-.007.047-.008.046-.006.047-.006.047-.006.047-.005.047-.005.048-.004.047-.004.048-.003.048-.003.048-.003.048-.002.048-.001.048-.001.049-.001.048-.001.049v.048l.001.049.001.048.002.098.005.097.005.097.007.098.008.097.01.096.01.097.012.095.012.096.014.095.014.094.015.093.016.092.017.092.018.09.018.09.018.088.019.087.02.086.02.085.02.083.02.081.021.08.02.078.021.076.021.075.021.072.02.071.021.068.02.066.02.065.038.121.037.111.035.1.031.09.028.078.025.065.02.052.015.039.011.024.004.01v-.001l-.002-.005-.004-.016-.005-.019-.004-.022-.003-.025-.004-.027-.003-.029-.002-.032-.003-.033-.004-.07-.002-.075-.002-.077-.002-.077v-.075l-.001-.072.001-.124.001-.086.001-.032.007-.058.008-.053.004-.024.004-.023.004-.021.005-.021.004-.018.005-.018.005-.017.005-.015.005-.014.005-.014.005-.012.005-.011.005-.01.006-.009.005-.008.005-.007.006-.007.005-.005.006-.005.005-.004.006-.003.005-.003.006-.002.005-.001.006-.001h.005l.005.001.006.001.005.001.005.002.005.003.006.002.009.007.01.007.009.009.009.009.008.01.007.009.007.01.006.009.009.015.007.011.002.004.005.013.006.015.018.037.023.046.028.054.033.062.037.068.042.075.045.08.099.173.107.188.114.195.116.198.115.195.11.187.194.327.137.228.051.085.04.051.039.05.04.048.039.048.04.046.039.046.039.044.039.043.039.043.038.041.039.04.038.039.038.039.038.037.038.036.038.036.038.034.037.034.037.033.038.031.037.031.036.03.037.029.036.029.037.027.036.027.035.025.036.025.036.025.035.023.035.023.035.021.034.021.035.021.034.019.034.019.034.018.033.018.034.017.033.016.033.015.032.015.033.014.032.013.032.013.031.013.032.011.031.011.031.011.03.01.031.009.03.009.03.008.029.008.029.007.029.007.029.006.028.006.028.005.028.005.028.005.027.004.053.006.053.005.051.004.049.002.049.001.047-.001.045-.001.044-.003.043-.003.042-.005.04-.005.038-.006.037-.007.035-.007.034-.008.032-.008.03-.008.029-.009.027-.008.026-.009.024-.009.022-.008.02-.008.035-.015.028-.013.019-.01.017-.009.002.005.003.006.005.007.007.009.017.02.022.025.026.028.031.033.035.036.039.039.087.087.098.095.106.102.111.106.226.215.213.201.178.169.069.066.052.051.023.022.024.025.026.027.027.029.029.032.03.034.031.037.032.039.032.041.032.044.033.046.033.048.017.025.016.026.016.027.016.027.016.027.016.028.016.029.016.03.015.03.015.03.015.032.014.031.014.033.014.033.014.034.013.034.012.035.013.035.011.037.012.036.011.038.01.038.01.039.009.039.008.04.008.04.008.041.007.042.006.042.005.043.004.044.004.044.003.045.003.046.001.046.001.046-.001.048-.001.048-.002.048-.003.05-.004.049-.005.047-.006.046-.007.045-.007.044-.009.042-.009.042-.01.04-.011.038-.012.038-.012.036-.013.036-.013.034-.014.033-.015.032-.015.031-.016.029-.016.029-.017.028-.017.027-.017.026-.018.024-.018.024-.018.023-.019.022-.019.022-.019.02-.019.019-.019.019-.02.018-.019.017-.02.016-.019.016-.02.015-.019.014-.02.013-.019.013-.019.012-.019.011-.019.011-.018.01-.018.01-.036.018-.034.015-.032.014-.031.011-.028.01-.026.009-.023.007-.037.011-.013.004-.01.003-.008.003-.007.002-.007.002-.007.001-.006.001h-.018l-.01-.002-.008-.003-.008-.003-.007-.004-.005-.005-.005-.005-.004-.004-.003-.004-.004-.007-.001-.003.007-.014.007-.016.006-.015.005-.017.005-.016.005-.017.005-.018.004-.018.004-.018.003-.019.006-.038.005-.039.003-.039.003-.041.001-.041.001-.041v-.041l-.001-.041-.002-.041-.002-.04-.003-.039-.003-.039-.004-.037-.004-.037-.004-.034-.008-.065-.009-.056-.007-.046-.006-.035-.006-.029.003.036.002.034.001.033-.001.031-.002.031-.003.029-.002.014-.003.014-.002.014-.004.014-.003.013-.004.014-.005.013-.004.013-.011.027-.012.026-.013.026-.015.026-.017.026-.018.027-.02.028-.021.028-.023.029-.025.03-.026.031-.028.032-.061.069-.143.16-.082.093-.044.05-.045.053-.024.027-.024.025-.025.024-.026.023-.026.022-.026.021-.027.019-.028.019-.027.017-.029.017-.028.015-.029.014-.029.014-.03.012-.029.012-.03.011-.03.01-.03.009-.03.008-.03.008-.031.007-.03.006-.03.006-.03.004-.03.004-.03.004-.03.003-.029.002-.03.002-.029.002-.028.001h-.084l-.054-.002-.052-.003-.05-.004-.047-.005-.044-.006-.042-.006-.038-.007-.035-.006-.031-.006-.026-.006-.023-.005-.031-.008-.011-.003.012-.008.011-.009.012-.01.012-.011.013-.011.012-.013.013-.014.013-.014.014-.016.013-.016.027-.034.028-.037.028-.039.028-.042.029-.043.028-.044.029-.046.028-.046.028-.047.027-.047.027-.047.051-.092.047-.088.043-.081.037-.071.03-.061.023-.046.015-.029.005-.01-.005.01-.007.01-.007.011-.009.01-.01.011-.012.011-.012.011-.014.011-.015.012-.015.011-.017.012-.017.011-.019.012-.019.011-.041.024-.043.023-.046.023-.047.023-.05.023-.05.023-.051.023-.052.021-.052.022-.052.021-.051.02-.098.037-.092.034-.081.029-.069.024-.053.017-.045.015.002-.005.001-.006.001-.007-.001-.009-.001-.009-.002-.011-.003-.011-.003-.012-.009-.025-.01-.027-.012-.028-.013-.028-.013-.027-.013-.026-.023-.046-.017-.031-.005-.011h-.001v-.001l.001.001v.006l-.001.006-.003.007-.003.009-.004.009-.011.023-.013.026-.016.028-.016.03-.018.031-.036.06-.031.052-.031.05-.294-.021.138-.272-.004.006-.004.007-.006.008-.008.008-.008.01-.01.01-.022.022-.026.023-.03.025-.032.025-.035.025-.018.013-.018.012-.018.012-.019.011-.019.011-.019.011-.019.01-.02.009-.019.009-.018.008-.019.006-.018.006-.018.005-.018.004-.017.003-.016.001h-.009l-.01-.001-.01-.001-.011-.002-.012-.003-.013-.003-.029-.009-.031-.01-.034-.013-.036-.015-.038-.016-.041-.018-.042-.019-.043-.021-.045-.021-.092-.046-.094-.047-.095-.048-.092-.048-.089-.045-.082-.042-.076-.038-.034-.016-.031-.015-.029-.013-.025-.011-.022-.008-.019-.007-.016-.005-.015-.005-.013-.006-.013-.006-.011-.006-.01-.006-.009-.007-.008-.007-.007-.006-.006-.007-.005-.007-.004-.007-.003-.007-.002-.007-.002-.007v-.013l.001-.007.002-.006.002-.006.003-.006.004-.006.004-.006.005-.005.006-.005.006-.005.006-.004.007-.004.008-.004.008-.003.008-.003.009-.002.021-.005.025-.007.064-.019.075-.021.077-.024.133-.041.058-.018-.027-.003-.028-.003-.029-.005-.029-.005-.03-.006-.03-.007-.031-.007-.031-.008-.032-.009-.032-.009-.033-.01-.033-.011-.033-.011-.034-.011-.068-.025-.069-.026-.069-.028-.07-.029-.071-.031-.07-.031-.069-.033-.069-.033-.068-.033-.067-.034-.066-.034-.064-.033-.062-.033-.06-.033-.058-.032-.055-.031-.053-.03-.049-.028-.046-.027-.081-.049-.064-.04-.026-.016-.02-.014-.018-.012-.015-.012-.014-.011-.012-.012-.011-.01-.009-.011-.007-.009-.006-.01-.005-.009-.004-.009-.003-.008-.001-.007v-.014l.002-.006.002-.006.004-.005.004-.004.004-.004.005-.003.006-.003.006-.002.007-.001.007-.001h.007l.007.001.008.002.007.002.008.003.007.004.008.004.007.006.004.002.005.003.012.007.015.007.019.007.021.007.024.008.026.007.028.008.061.017.066.016.068.017.071.016.069.015.066.014.116.025.082.016.03.006-.049-.01-.046-.011-.042-.01-.04-.011-.037-.011-.034-.011-.032-.011-.031-.011-.028-.011-.027-.012-.026-.012-.025-.013-.023-.013-.024-.014-.023-.014-.023-.015-.023-.016-.023-.016-.05-.035-.054-.039-.06-.043-.033-.023-.035-.024-.038-.025-.041-.027-.044-.027-.047-.03-.051-.03-.054-.032-.029-.017-.028-.018-.029-.019-.028-.02-.029-.021-.029-.021-.029-.023-.029-.023-.03-.025-.029-.024-.029-.026-.029-.026-.029-.027-.03-.028-.029-.028-.029-.029-.029-.029-.029-.029-.057-.061-.056-.061-.056-.063-.055-.063-.054-.064-.052-.064-.051-.064-.05-.063-.048-.063-.046-.062-.044-.06-.042-.058-.04-.057-.037-.054-.035-.052-.033-.049-.029-.046-.026-.042-.024-.038-.02-.035-.017-.03-.013-.026-.009-.02-.007-.017-.006-.016-.005-.015-.003-.014-.003-.012-.002-.011-.001-.01v-.009l.001-.008.002-.008.002-.006.002-.006.003-.004.004-.004.004-.004.004-.003.004-.002.005-.002.005-.001.004-.001h.019l.007.001.007.001.005.002.017.014.035.028.062.05.098.078.143.113.196.154.257.202.037.028.038.027.039.026.04.025.041.024.041.023.043.023.043.021.044.021.045.02.045.019.046.018.046.018.046.017.047.016.048.015.047.014.048.014.048.013.049.013.048.012.048.011.048.011.048.01.048.009.048.009.048.008.047.008.047.007.046.007.046.006.046.006.089.011.087.008.083.008.08.006.076.004.071.004.067.002.062.002.055.001h.05l.016.001.065-.001.034-.001h.033-.033l-.035.001h-.129l-.065-.003-.064-.003-.063-.005-.063-.007-.063-.007-.062-.009-.061-.01-.061-.011-.06-.012-.06-.014-.059-.014-.058-.016-.058-.017-.058-.018-.056-.019-.057-.019-.055-.021-.056-.022-.054-.023-.054-.024-.054-.025-.053-.025-.052-.027-.052-.027-.051-.028-.05-.029-.05-.03-.05-.03-.049-.031-.048-.032-.047-.033-.047-.033-.047-.034-.046-.035-.045-.035-.045-.036-.044-.036-.043-.037-.043-.038-.043-.038-.041-.038-.041-.039-.041-.04-.04-.039-.039-.041-.039-.04-.038-.041-.037-.041-.037-.042-.036-.042-.036-.042-.035-.042-.034-.043-.034-.043-.033-.043-.033-.043-.032-.043-.031-.044-.031-.044-.03-.043-.029-.044-.014-.022-.014-.022-.014-.023-.014-.023-.013-.024-.013-.023-.025-.049-.025-.049-.023-.051-.022-.052-.021-.052-.021-.054-.019-.055-.019-.055-.017-.057-.017-.057-.016-.057-.014-.058-.015-.059-.013-.06-.012-.059-.012-.06-.011-.061-.011-.061-.009-.06-.009-.062-.008-.061-.008-.061-.007-.061-.006-.061-.005-.061-.006-.06-.004-.061-.004-.06-.003-.059-.003-.06-.003-.058-.002-.059-.001-.057-.001-.057-.001-.056v-.11l.001-.106.003-.102.003-.098.005-.092.006-.087.006-.081.007-.074.007-.068.007-.06.008-.052.007-.044.004-.019.004-.017.007-.029.007-.025.006-.023.007-.019.006-.016.007-.014.006-.011.006-.009.006-.007.006-.004.002-.002.003-.001.003-.001h.005l.003.001.005.002.004.004.005.004.004.006.004.006.004.007.004.007.006.016.005.016.005.014.003.012.002.011.002.027.002.027.002.026.003.027.003.026.003.025.008.051.009.049.01.049.011.047.012.045.013.045.013.043.014.041.015.04.015.039.015.037.015.036.015.033.016.033.015.03.014.028.015.027.013.025.014.023.024.04.02.032.015.023.014.019.001-.004.002-.003.002-.002.002-.001.003-.001.004-.001h.004l.004.001.005.001.005.002.011.005.013.007.013.008.015.01.016.011.016.012.017.014.035.029.036.031.036.033.034.032.032.03.021.02.009.012.014.017.013.014.012.011.005.005.005.003.005.003.004.002-.016-.016-.043-.043-.008-.008-.006-.007-.016-.022-.017-.024-.018-.026-.018-.027-.019-.029-.019-.03-.039-.064-.039-.066-.039-.067-.036-.067-.034-.064-.031-.061-.014-.028-.012-.027-.011-.025-.01-.023-.008-.021-.007-.018-.005-.016-.003-.013v-.006l-.001-.008v-.02l.001-.026.003-.03.003-.035.004-.039.011-.09.014-.101.016-.111.017-.117.018-.12.037-.237.016-.111.015-.101.012-.09.01-.075.003-.03.002-.026.001-.02V9.06l-.001-.011v-.011l.001-.009.001-.009.001-.009.002-.007.001-.007.003-.006.002-.006.003-.005.003-.005.003-.004.003-.004.003-.003.007-.005.007-.003.007-.003.006-.001.006-.001h.009l.003.001-.007-.012-.005-.013-.005-.013-.004-.013-.003-.014-.002-.014-.001-.015-.001-.014v-.015l.001-.015.001-.016.002-.015.003-.015.002-.016.007-.031.008-.03.009-.03.009-.029.009-.028.017-.051.006-.023.006-.021.002-.009.003-.008.003-.008.004-.008.004-.006.004-.006.004-.006.005-.005.005-.004.004-.004.005-.003.006-.003.01-.005.01-.004.01-.002.01-.001.009-.001h.007l.012.001.004.001.046.111h.001l.003.019.005.02.004.019.006.019.005.02.006.019.007.02.007.019.008.02.008.019.009.019.009.02.01.019.01.019.011.019.012.019.012.019.013.019-.146-.347-.006-.038-.005-.037-.004-.037-.002-.037-.001-.035-.001-.034.001-.034.002-.032.002-.031.003-.03.003-.028.004-.026.004-.025.004-.023.005-.021.008-.036.007-.026.005-.017.001-.005.009-.026.009-.027.01-.027.01-.027.011-.027.011-.028.024-.056.026-.057.028-.058.029-.058.031-.059.032-.058.032-.059.034-.057.034-.057.035-.057.035-.055.035-.054.036-.052.035-.051.035-.049.034-.046.034-.044.033-.042.031-.039.031-.035.03-.033.027-.029.014-.013.013-.012.012-.011.012-.011.012-.009.011-.008.01-.007.01-.006.009-.005.009-.003.008-.003.007-.001h.007Zm-.41 2.591-.033.034-.036.03-.04.026-.041.023-.044.019-.045.014-.046.01-.047.006H23.8v.002l-.015.104-.017.113-.036.237-.018.119-.017.115-.016.108-.013.096-.01.083-.003.027.004.008.01.021.027.053.03.057.033.06.034.06.035.059.035.057.016.025.015.024.015.022.013.019.007.01.027.027.018.018.032.035.029.039.025.041.02.043.017.045.012.047.007.047.003.048-.001.047-.007.048-.01.047-.015.045-.02.044-.023.042-.028.039-.031.036-.034.034-.037.03-.04.026-.043.022-.044.018-.046.014-.047.009-.048.005h-.047l-.048-.004-.047-.009-.046-.013-.045-.018-.004-.002-.026-.013-.025-.014-.023-.014-.035-.025-.031-.026-.037-.035-.02-.022.001.01.005.056.006.057.006.056.007.056.007.055.008.056.009.055.009.055.01.054.011.053.011.053.011.053.013.051.013.051.013.049.015.049.014.047.016.047.016.045.016.044.018.042.017.041.018.04.019.038.02.037.008.016.01.018.01.016.01.016.01.016.01.016.026.039.027.039.028.039.028.039.028.039.03.039.029.039.031.038.03.039.032.038.032.037.032.038.033.037.033.037.034.036.035.036.035.036.035.035.036.035.036.034.037.034.037.034.038.033.038.032.039.032.039.031.039.031.04.03.041.03.04.029.042.028.041.028.042.026.043.027.043.025.043.025.044.024.044.023.044.023.045.021.045.021.046.02.046.02.047.018.046.018.048.016.047.016.049.015.048.014.049.013.049.013.05.011.05.01.051.009.051.009.052.007.052.006.053.006.053.004.053.003.055.002h.11l.03-.001h.031l.047.001.047.005.047.01.045.014.044.019.041.023.04.026.037.03.033.034.031.036.026.039.023.042.019.044.015.045.01.046.006.047.002.048-.004.047-.007.047-.012.046-.017.045-.02.042-.024.041-.029.038-.031.036-.035.032-.038.029-.04.025-.043.021-.044.017-.046.012-.047.008-.047.004-.021.001h-.017l-.037.001-.076.001-.019-.001h-.05l-.061-.001-.066-.002-.072-.003-.078-.004-.082-.005-.086-.006-.09-.008-.094-.009-.096-.011-.051-.007-.05-.007-.051-.007-.012-.002.027.019.054.039.046.033.019.013.016.011.015.01.014.008.012.007.012.007.011.005.012.006.013.006.015.006.017.006.02.007.024.008.026.007.03.008.035.009.038.009.046.009.045.013.045.016.042.021.041.024.038.028.035.032.032.035.029.038.024.04.021.042.017.044.013.046.008.047.004.047-.001.047-.004.038.035.015.063.026.063.025.06.024.06.021.028.01.027.009.028.008.026.009.025.007.025.007.024.006.022.005.021.005.02.004.019.003.017.003.016.002.02.002.047.007.045.012.045.015.043.02.04.024.039.028.035.031.032.034.03.037.025.04.022.041.017.044.013.045.009.047.005.047v.047l-.004.047-.009.046-.013.045-.01.027.04.02.088.043.04.02.04.018.037.017.034.015.017.008v-.001l.011-.007.009-.006.023-.017.02-.015.017-.014.012-.011.016-.022.032-.035.034-.032.038-.028.04-.025.042-.021.044-.017.046-.012.046-.009.047-.004.047.001.047.005.03.006.02-.01.045-.019.046-.013.047-.01.048-.004.048-.001.048.005.047.009.047.014.044.017.043.023.04.026.038.03.035.033.029.035.034-.013.048-.019.047-.02.047-.02.046-.02.045-.02.042-.02.04-.019.037-.019.032-.017.03-.018.011-.006.01-.007.006-.003.005-.008.031-.037.033-.033.037-.031.04-.026.042-.023.043-.018.046-.015.046-.01.047-.005.048-.001.047.003.047.008.046.013.045.017.043.02.04.025.038.029.035.032.032.035.029.039.024.04.021.043.016.045.013.046.007.047.004.047-.002.048-.005.047-.011.046-.014.046-.019.043-.005.011-.015.031-.025.049-.032.063-.039.076-.044.084.002-.002.013-.009.013-.009.013-.01.012-.01.012-.011.012-.011.011-.012.015-.017.044-.051.046-.053.084-.095.143-.16.058-.066.025-.028.022-.027.02-.024.017-.021.014-.019.012-.016.009-.014.007-.011.005-.008.003-.006.002-.004.001-.004v-.001h.001v-.007l.001-.007v-.022l-.001-.017-.003-.027-.002-.048.002-.047.007-.048.011-.046.016-.045.02-.043.023-.041.028-.039.031-.036.035-.033.037-.029.04-.026.043-.021.044-.018.046-.013.046-.009.048-.005h.047l.048.005.046.009.046.013.044.018.042.022.04.026.038.029.034.033.031.036.028.039.024.041.019.043.016.045.011.047.002.009.002-.013.005-.034.004-.034.004-.037.003-.038.003-.04.001-.039.001-.039.001-.038-.001-.037-.001-.037-.002-.037-.002-.035-.003-.035-.004-.035-.004-.034-.005-.033-.005-.033-.006-.032-.006-.032-.007-.032-.007-.03-.008-.03-.008-.03-.008-.029-.009-.029-.009-.028-.01-.028-.01-.028-.01-.026-.011-.027-.011-.026-.011-.025-.011-.025-.012-.025-.011-.024-.012-.023-.013-.024-.012-.022-.013-.023-.012-.021-.013-.022-.013-.021-.013-.02-.012-.019-.027-.04-.026-.037-.027-.035-.025-.033-.026-.031-.025-.029-.024-.028-.024-.026-.022-.024-.021-.022-.021-.021-.018-.018-.049-.048-.067-.064-.177-.167-.213-.202-.227-.216-.113-.107-.107-.104-.1-.098-.065-.064-.01.003-.042.01-.044.01-.046.01-.048.009-.05.007-.052.007-.053.006-.055.005-.057.003-.058.002-.06.001-.062-.001-.063-.003-.064-.004-.066-.007-.065-.008-.036-.005-.034-.006-.035-.006-.035-.006-.035-.008-.036-.007-.036-.009-.036-.009-.036-.009-.037-.01-.036-.011-.037-.012-.038-.012-.037-.012-.038-.014-.038-.014-.038-.015-.038-.015-.039-.016-.039-.017-.039-.018-.039-.018-.039-.019-.039-.02-.04-.021-.04-.021-.039-.022-.04-.023-.041-.024-.04-.024-.04-.025-.041-.027-.04-.026-.041-.028-.041-.029-.041-.029-.041-.03-.041-.032-.041-.032-.041-.032-.042-.034-.041-.035-.042-.035-.041-.037-.042-.037-.042-.039-.042-.039-.042-.04-.042-.041-.042-.042-.042-.043-.042-.044-.042-.045-.042-.046-.043-.047-.042-.049-.042-.049-.043-.05-.042-.051-.043-.052-.042-.054-.042-.052-.018-.025-.017-.026-.052-.087-.136-.229-.195-.327-.111-.188-.115-.196-.028-.047-.005.011-.026.039-.029.038-.032.034-.036.031-.038.027-.041.024-.043.02-.045.016-.046.011-.046.007-.047.003-.048-.002-.046-.007-.046-.01-.045-.015-.043-.02-.042-.023-.038-.027-.037-.03-.033-.034-.029-.037-.026-.039-.023-.042-.009-.02-.016-.039-.018-.045-.023-.058-.026-.069-.03-.083-.033-.094-.036-.105-.038-.116-.04-.125-.021-.068-.021-.069-.021-.071-.022-.073-.021-.076-.022-.077-.022-.08-.021-.081-.021-.083-.022-.085-.021-.086-.02-.088-.021-.09-.02-.091-.019-.092-.018-.087-.01.012Zm3.281 7.962-.008.014.018-.028-.01.014Zm1.599-.259-.005.011.011-.022-.006.011Zm-5.473-5.582.005-.002.008-.009-.013.011Zm.095-.105-.022.03.016-.016.019-.035-.013.021Zm1.066-.101.018.054-.012-.038-.007-.031.001.015Zm-1.02.017-.016.034.018-.032.015-.047-.017.045Zm-.335-1.705.027.002-.043-.004.016.002Zm.189 11.841s4.467 5.179 3.086 7.244c-1.381 2.066-1.703.944-3.464.898 0 0-1.869 2.042-3.855 1.771 0 0-.54.013-.647-.207 0 0 1.502-.927 1.6-1.222 0 0-1.241.852-2.536 1.142-1.296.29-2.316.491-2.584.447 0 0-.035-.069.183-.098.218-.03 2.254-.955 2.362-1.261-.022.033-2.863 1.222-4.657.664 0 0-.092-.046.127-.094.22-.048 2.972-1.238 3.1-1.446 0 0-1 .055-1.744-.225-.745-.279-1.419-.67-1.507-.919-.088-.249.121-.104.262-.109.141-.005 1.612.038 1.857-.13 0 0-.034-.452.135-.491-.197-.047-.124-.678.397-.672 0 0 .097-.272.456-.305.36-.033.42.008.509-.062.088-.069.651-.539.7-.682.049-.142.262-.723.282-.909.02-.186.032-.349.032-.349s-.337-.143-.537-.373c-.199-.23-.466-.618-.482-.76-.016-.143.202-.503.449-.714.247-.211.652-.687.652-.844 0-.156.685-2.011.685-2.011l2.095-2.048 2.738.078.306 3.687Z"/>
    <path fill="#8c8c8c" stroke="#626262" stroke-width=".5" d="M16.347 17.309c-.101-.096-.125-.213-.1-.344a.628.628 0 0 0-.338-.621.474.474 0 0 1 .526-.088c-.063-.263-.214-.438-.439-.701.242-.033.478-.103.702 0 0 0 .061-.369-.175-.351 0 0 .082-1.465.947-2.017.865-.553 2.094-1.104 2.122-1.667 0 0 .828.607.28.965 0 0 1.146-.22 1.123-.526 0 0 .287.785 0 .965 0 0 .94.092.965-.351 0 0 .877.838.439.964 0 0 .231.599.438.264 0 0 .125.842-.438 1.14 0 0 .364.868 1.14.35 0 0-.044 1.396-1.14 1.228 0 0 .636.179.964-.087 0 0-.284 1.266-1.403.701 0 0 .7.241.702.877 0 0-1.009-.082-1.053.351 0 0 .012.265.088.351 0 0-.265-.119-.439-.088 0 0-.303 1.075-1.49 1.316 0 0 .245-.286.104-.439 0 0-.072.401-.543.439-.209.016-.386.379-.263.613 0 0-.609-.207-.526-.526 0 0-.489.436-.877.439 0 0 .051-.504-.351-.79-.402-.285-.386-.467-.439-.613 0 0-.014.402.088.526 0 0-.614-.591-.614-.877 0 0 .047.421.088.454 0 0-.473-.728-.263-1.068 0 0 .007-.349-.176-.263 0 0 .46-.382.351-.526"/>
    <path fill="#626262" d="M19.066 16.706s-.606.614-.789.621c-.183.007-.744-.078-.807-.237-.063-.159 1.596-.384 1.596-.384Z"/>
    <path fill="#d0d0d0" stroke="#626262" stroke-width=".5" d="M17.928 15.678s.309.004.648.491c0 0 .239.19.388.243 0 0 .179.247.299.201 0 0 .097-.047.021-.121l.169.157s-.09-.124-.254.065c0 0-.228.078-.474.107-.245.029-1.278.162-1.466.641 0 0-.163-.655-.232-.721 0 0-.108-.295-.002-.354.106-.06.843-.627.867-.709a.145.145 0 0 1 .036 0"/>
    <path fill="#ffe271" d="M6.568 2.6h1.058L2.6 8.277V6.568A3.97 3.97 0 0 1 6.568 2.6ZM2.6 14.945v-3.911L10.066 2.6h3.463L2.6 14.945Zm0 6.668v-3.911L15.969 2.6h3.462L2.6 21.613Zm0 6.668V24.37L21.872 2.6h3.462L2.6 28.281Zm0 2.757L27.774 2.6h3.462L3.494 33.939a3.949 3.949 0 0 1-.894-2.507v-.394ZM33.275 3.054a3.99 3.99 0 0 1 1.781 1.899L8.104 35.4H6.568a3.953 3.953 0 0 1-1.621-.346l28.328-32Zm2.125 8.179L14.006 35.4h-3.462L35.4 7.322v3.911Zm0 6.667L19.909 35.4h-3.462L35.4 13.989V17.9Zm0 6.668L25.811 35.4h-3.462L35.4 20.657v3.911ZM28.252 35.4l7.148-8.075v3.911l-3.677 4.153a4 4 0 0 1-.291.011h-3.18Z"/>
    <path fill="none" stroke="#626262" stroke-width=".5" d="M35.4 6.568A3.97 3.97 0 0 0 31.432 2.6H6.568A3.97 3.97 0 0 0 2.6 6.568v24.864A3.97 3.97 0 0 0 6.568 35.4h24.864a3.97 3.97 0 0 0 3.968-3.968V6.568Z"/>
</svg>
