<?xml version="1.0" encoding="UTF-8" standalone="no"?><!DOCTYPE svg PUBLIC "-//W3C//DTD SVG 1.1//EN" "http://www.w3.org/Graphics/SVG/1.1/DTD/svg11.dtd">
<svg width="100%" height="100%" viewBox="0 0 38 38" version="1.1"
    xmlns="http://www.w3.org/2000/svg"
    xmlns:xlink="http://www.w3.org/1999/xlink" xml:space="preserve"
    xmlns:serif="http://www.serif.com/" style="fill-rule:evenodd;clip-rule:evenodd;stroke-linecap:round;stroke-linejoin:round;stroke-miterlimit:1.5;">
    <g id="head_slot">
        <path d="M38,4.597c0,-2.537 -2.06,-4.597 -4.597,-4.597l-28.806,0c-2.537,0 -4.597,2.06 -4.597,4.597l0,28.806c0,2.537 2.06,4.597 4.597,4.597l28.806,0c2.537,0 4.597,-2.06 4.597,-4.597l0,-28.806Z" style="fill:none;"/>
        <g id="head">
            <path d="M8.07,23.116c-0.327,-0.309 -0.405,-0.688 -0.326,-1.11c0.043,-0.983 -0.381,-1.608 -1.093,-2.012c0.503,-0.44 1.07,-0.54 1.703,-0.284c-0.205,-0.852 -0.694,-1.42 -1.419,-2.271c0.782,-0.106 1.544,-0.333 2.271,0c0,0 0.197,-1.194 -0.568,-1.136c0,0 0.268,-4.74 3.068,-6.529c2.8,-1.79 6.778,-3.573 6.868,-5.394c0,0 2.681,1.962 0.907,3.122c0,0 3.708,-0.712 3.635,-1.703c0,0 0.928,2.542 0,3.123c0,0 3.043,0.298 3.123,-1.136c0,0 2.84,2.713 1.42,3.123c0,0 0.749,1.938 1.419,0.852c0,0 0.404,2.728 -1.419,3.69c0,0 1.18,2.812 3.69,1.136c0,0 -0.141,4.517 -3.69,3.974c0,0 2.061,0.579 3.122,-0.283c0,0 -0.918,4.1 -4.542,2.271c0,0 2.265,0.78 2.271,2.839c0,0 -3.266,-0.266 -3.406,1.135c0,0 0.039,0.859 0.284,1.136c0,0 -0.857,-0.384 -1.42,-0.284c0,0 -0.984,3.48 -4.826,4.258c0,0 0.795,-0.923 0.339,-1.419c0,0 -0.234,1.299 -1.759,1.419c-0.676,0.054 -1.249,1.228 -0.851,1.987c0,0 -1.972,-0.672 -1.704,-1.703c0,0 -1.583,1.411 -2.838,1.419c0,0 0.166,-1.632 -1.136,-2.555c-1.302,-0.923 -1.25,-1.512 -1.419,-1.987c0,0 -0.046,1.303 0.283,1.704c0,0 -1.987,-1.913 -1.987,-2.839c0,0 0.153,1.363 0.284,1.472c0,0 -1.53,-2.357 -0.852,-3.46c0,0 0.023,-1.129 -0.567,-0.851c0,0 1.486,-1.237 1.135,-1.704" style="fill:#8c8c8c;stroke:#626262;stroke-width:0.5px;"/>
            <path d="M16.871,21.167c0,0 -1.963,1.987 -2.555,2.01c-0.592,0.022 -2.407,-0.252 -2.61,-0.767c-0.204,-0.515 5.165,-1.243 5.165,-1.243Z" style="fill:#626262;"/>
            <path d="M13.188,17.837c0,0 0.999,0.014 2.098,1.591c0,0 0.771,0.613 1.256,0.786c0,0 0.577,0.799 0.966,0.652c0,0 0.314,-0.152 0.068,-0.392l0.546,0.508c0,0 -0.288,-0.402 -0.821,0.21c0,0 -0.738,0.254 -1.532,0.346c-0.795,0.093 -4.138,0.524 -4.746,2.076c0,0 -0.529,-2.122 -0.753,-2.336c0,0 -0.35,-0.952 -0.006,-1.145c0.345,-0.193 2.731,-2.03 2.806,-2.296c0.003,-0.008 0.118,0 0.118,0" style="fill:#d0d0d0;stroke:#626262;stroke-width:0.5px;"/>
        </g>
        <path d="M6.105,12.98c0,0 15.425,0.867 16.831,0.669c1.406,-0.198 1.034,10.473 -9.166,4.374c0,0 -0.027,-0.519 -1.38,0c-1.353,0.519 -2.944,1.945 -4.622,0.854c-1.678,-1.091 -2.486,-1.872 -1.663,-5.897Z" style="fill:#ffe271;stroke:#626262;stroke-width:0.5px;"/>
    </g>
</svg>
