<svg xmlns="http://www.w3.org/2000/svg" xml:space="preserve" fill-rule="evenodd" stroke-linecap="round" stroke-linejoin="round" stroke-miterlimit="1.5" clip-rule="evenodd" viewBox="0 0 38 38"><path fill="none" d="M38 4.597A4.6 4.6 0 0 0 33.403 0H4.597A4.6 4.6 0 0 0 0 4.597v28.806A4.6 4.6 0 0 0 4.597 38h28.806A4.6 4.6 0 0 0 38 33.403V4.597Z"/><path fill="#8c8c8c" stroke="#626262" stroke-width=".5" d="M8.07 23.116c-.327-.309-.405-.688-.326-1.11.043-.983-.381-1.608-1.093-2.012.503-.44 1.07-.54 1.703-.284-.205-.852-.694-1.42-1.419-2.271.782-.106 1.544-.333 2.271 0 0 0 .197-1.194-.568-1.136 0 0 .268-4.74 3.068-6.529 2.8-1.79 6.778-3.573 6.868-5.394 0 0 2.681 1.962.907 3.122 0 0 3.708-.712 3.635-1.703 0 0 .928 2.542 0 3.123 0 0 3.043.298 3.123-1.136 0 0 2.84 2.713 1.42 3.123 0 0 .749 1.938 1.419.852 0 0 .404 2.728-1.419 3.69 0 0 1.18 2.812 3.69 1.136 0 0-.141 4.517-3.69 3.974 0 0 2.061.579 3.122-.283 0 0-.918 4.1-4.542 2.271 0 0 2.265.78 2.271 2.839 0 0-3.266-.266-3.406 1.135 0 0 .039.859.284 1.136 0 0-.857-.384-1.42-.284 0 0-.984 3.48-4.826 4.258 0 0 .795-.923.339-1.419 0 0-.234 1.299-1.759 1.419-.676.054-1.249 1.228-.851 1.987 0 0-1.972-.672-1.704-1.703 0 0-1.583 1.411-2.838 1.419 0 0 .166-1.632-1.136-2.555-1.302-.923-1.25-1.512-1.419-1.987 0 0-.046 1.303.283 1.704 0 0-1.987-1.913-1.987-2.839 0 0 .153 1.363.284 1.472 0 0-1.53-2.357-.852-3.46 0 0 .023-1.129-.567-.851 0 0 1.486-1.237 1.135-1.704"/><path fill="#626262" d="M16.871 21.167s-1.963 1.987-2.555 2.01c-.592.022-2.407-.252-2.61-.767-.204-.515 5.165-1.243 5.165-1.243Z"/><path fill="#d0d0d0" stroke="#626262" stroke-width=".5" d="M13.188 17.837s.999.014 2.098 1.591c0 0 .771.613 1.256.786 0 0 .577.799.966.652 0 0 .314-.152.068-.392l.546.508s-.288-.402-.821.21c0 0-.738.254-1.532.346-.795.093-4.138.524-4.746 2.076 0 0-.529-2.122-.753-2.336 0 0-.35-.952-.006-1.145.345-.193 2.731-2.03 2.806-2.296a.581.581 0 0 1 .118 0"/><path fill="#ffe271" stroke="#626262" stroke-width=".5" d="m22.972 28.611-4.263.909-.131 2.978s3.704-.169 4.394-3.887Zm-15.198-.816 4.141 1.36-.189 2.974s-3.665-.564-3.952-4.334Z"/><path fill="#ffe271" d="M15.496 25.594a4.86 4.86 0 0 1 4.59 5.111 4.86 4.86 0 0 1-5.112 4.59 4.86 4.86 0 0 1-4.59-5.111 4.86 4.86 0 0 1 5.112-4.59Z"/><path fill="#626262" d="m15.308 25.587.062.002.063.002.063.003.062.003.063.005.062.005.062.006.062.007.061.008.061.008.061.009.061.01.06.011.06.011.06.012.06.013.059.014.059.014.058.015.059.016.058.016.058.017.057.018.057.018.057.019.057.02.056.02.056.022.055.021.055.023.055.023.054.024.055.024.053.025.054.026.053.026.052.027.052.027.052.028.052.029.051.029.05.03.051.031.049.031.05.032.049.032.048.033.049.033.047.034.048.034.047.035.046.036.046.036.045.037.045.037.045.038.044.038.044.039.043.039.043.04.042.04.042.041.041.041.041.041.04.043.039.042.04.043.038.044.039.044.037.045.037.045.037.045.036.046.035.046.035.047.035.047.034.048.033.048.033.048.032.049.031.049.031.049.031.05.029.051.03.05.028.052.028.051.028.052.026.052.027.052.025.053.025.054.024.053.024.054.023.054.023.055.021.055.021.055.021.055.02.056.019.056.018.057.018.056.017.057.016.057.016.058.015.058.014.058.014.058.013.059.012.058.012.059.01.06.01.059.01.06.008.06.008.06.007.06.007.061.005.061.005.061.004.061.003.061.003.062.002.062.001.061v.062l-.001.063-.001.062-.002.063-.003.062-.004.063-.005.062-.005.062-.006.062-.007.062-.007.061-.009.062-.009.061-.01.06-.01.061-.012.06-.012.06-.013.059-.013.059-.014.059-.015.059-.016.058-.016.059-.017.057-.018.058-.019.057-.019.057-.019.056-.021.056-.021.056-.022.056-.022.055-.023.055-.024.054-.024.054-.025.054-.026.053-.026.053-.027.053-.028.052-.028.052-.029.051-.029.051-.03.051-.03.05-.031.05-.032.049-.032.049-.033.049-.033.048-.034.048-.035.047-.035.047-.035.046-.037.046-.036.046-.037.045-.038.045-.038.044-.039.043-.039.044-.04.042-.04.042-.041.042-.041.041-.042.041-.042.04-.043.04-.043.039-.044.039-.044.038-.044.038-.045.037-.046.036-.045.036-.047.036-.046.035-.047.034-.048.034-.048.033-.048.033-.049.032-.049.032-.05.031-.05.03-.05.03-.051.029-.051.029-.051.028-.052.027-.052.027-.053.026-.053.026-.053.025-.054.024-.054.024-.054.023-.054.022-.055.022-.055.021-.056.02-.056.02-.056.019-.056.019-.057.017-.057.018-.057.016-.057.016-.058.015-.058.014-.059.014-.058.012-.059.013-.059.011-.059.011-.06.01-.059.009-.06.009-.06.008-.061.007-.06.006-.061.006-.061.005-.061.004-.062.003-.061.002-.062.002-.062.001h-.124l-.063-.001-.062-.003-.063-.003-.062-.003-.063-.005-.062-.005-.062-.006-.062-.007-.061-.008-.061-.008-.061-.009-.061-.01-.06-.011-.06-.011-.06-.012-.06-.013-.059-.014-.059-.014-.059-.015-.058-.015-.058-.017-.058-.017-.057-.018-.057-.018-.057-.019-.057-.02-.056-.02-.056-.021-.055-.022-.055-.023-.055-.023-.055-.024-.054-.024-.053-.025-.054-.026-.053-.026-.052-.027-.052-.027-.052-.028-.052-.029-.051-.029-.05-.03-.051-.031-.049-.031-.05-.031-.049-.033-.049-.032-.048-.034-.047-.034-.048-.034-.047-.035-.046-.036-.046-.036-.045-.037-.045-.037-.045-.038-.044-.038-.044-.038-.043-.04-.043-.039-.042-.041-.042-.04-.041-.042-.041-.041-.04-.043-.04-.042-.039-.043-.038-.044-.039-.044-.037-.045-.037-.045-.037-.045-.036-.046-.035-.046-.035-.047-.035-.047-.034-.047-.033-.048-.033-.049-.032-.049-.031-.049-.031-.049-.031-.05-.029-.051-.03-.05-.028-.051-.028-.052-.028-.052-.027-.052-.026-.052-.025-.053-.025-.054-.024-.053-.024-.054-.023-.054-.023-.055-.021-.055-.021-.055-.021-.055-.02-.056-.019-.056-.018-.057-.018-.056-.017-.057-.016-.057-.016-.058-.015-.058-.014-.058-.014-.058-.013-.058-.012-.059-.012-.059-.01-.06-.01-.059-.01-.06-.008-.06-.008-.06-.007-.06-.007-.061-.005-.061-.005-.061-.004-.061-.003-.061-.003-.062-.002-.061-.001-.062v-.062l.001-.063.001-.062.002-.063.003-.062.004-.063.004-.062.006-.062.006-.062.007-.062.007-.061.009-.062.009-.061.01-.06.01-.061.012-.06.012-.059.013-.06.013-.059.014-.059.015-.059.016-.058.016-.058.017-.058.018-.058.019-.057.019-.057.019-.056.021-.056.021-.056.022-.056.022-.055.023-.055.024-.054.024-.054.025-.054.026-.053.026-.053.027-.053.028-.052.028-.052.029-.051.029-.051.03-.051.03-.05.031-.05.032-.049.032-.049.033-.049.033-.048.034-.048.035-.047.035-.047.035-.046.036-.046.037-.046.037-.045.038-.044.038-.045.039-.043.039-.043.04-.043.04-.042.041-.042.041-.041.042-.041.042-.04.043-.04.043-.039.044-.039.044-.038.044-.038.045-.037.045-.036.046-.036.047-.036.046-.035.047-.034.048-.034.048-.033.048-.033.049-.032.049-.032.05-.031.05-.03.05-.03.051-.029.051-.029.051-.028.052-.027.052-.027.053-.026.053-.026.053-.025.054-.024.053-.024.055-.023.054-.022.055-.022.055-.021.056-.02.056-.02.056-.019.056-.019.057-.017.057-.017.057-.017.057-.016.058-.015.058-.014.058-.013.059-.013.059-.013.059-.011.059-.011.06-.01.059-.009.06-.009.06-.008.061-.007.06-.006.061-.006.061-.004.061-.005.062-.003.061-.002.062-.002.062-.001h.124Zm-.119.5-.056.001-.055.001-.056.003-.055.003-.054.003-.055.005-.055.005-.054.005-.054.007-.054.007-.054.007-.053.009-.054.009-.053.009-.053.011-.052.011-.053.011-.052.012-.052.013-.052.014-.051.014-.052.014-.051.016-.05.016-.051.016-.05.017-.05.018-.05.018-.049.019-.05.02-.049.02-.048.02-.049.022-.048.021-.047.023-.048.023-.047.023-.047.024-.046.025-.046.025-.046.026-.046.026-.045.027-.045.027-.044.028-.044.028-.044.029-.043.029-.044.03-.042.03-.043.031-.042.032-.041.032-.041.032-.041.033-.04.033-.04.034-.04.034-.039.035-.039.035-.038.036-.038.036-.037.036-.037.037-.037.038-.036.038-.036.038-.035.039-.035.039-.034.04-.034.04-.033.04-.033.041-.033.041-.032.042-.031.042-.031.042-.03.043-.03.043-.03.044-.029.044-.028.044-.028.045-.027.045-.027.045-.026.046-.026.046-.025.047-.025.047-.024.047-.024.047-.023.048-.022.048-.022.049-.021.048-.021.05-.02.049-.019.05-.019.05-.019.05-.017.051-.018.051-.016.051-.016.051-.015.052-.015.052-.014.052-.013.053-.013.053-.012.053-.012.054-.011.053-.01.054-.009.054-.009.055-.008.054-.008.055-.007.055-.006.056-.005.055-.005.056-.004.056-.004.057-.002.056-.002.056-.001.056-.001.056v.056l.001.055.002.056.002.055.003.055.004.055.004.055.005.054.006.054.006.055.007.054.008.053.008.054.009.053.01.053.01.053.011.053.012.052.012.053.013.052.013.051.014.052.015.051.015.051.016.051.017.051.017.05.017.05.019.05.019.049.019.049.02.049.021.049.021.048.022.048.022.048.023.047.024.047.024.047.024.047.025.046.026.046.026.045.027.045.027.045.028.045.028.044.029.044.03.043.03.043.03.043.031.042.031.042.032.042.032.041.033.04.034.041.033.04.035.039.034.04.035.038.036.039.036.037.037.038.037.037.037.036.038.037.039.035.038.036.039.034.04.035.04.033.041.034.04.033.042.032.041.032.042.032.043.03.043.031.043.03.043.029.044.029.045.029.044.027.045.028.046.027.046.026.046.026.046.025.047.024.047.025.048.023.047.023.049.023.048.021.049.022.049.02.049.02.05.02.05.019.051.018.05.018.051.017.051.017.052.015.052.016.052.014.052.014.053.014.052.013.054.012.053.011.054.011.054.01.054.01.054.009.055.008.055.007.055.007.055.006.056.006.056.005.056.004.056.003.056.003.057.002.056.001h.111l.056-.001.055-.001.055-.003.056-.002.054-.004.055-.004.055-.005.054-.006.054-.007.054-.007.054-.007.053-.009.054-.009.053-.009.053-.011.052-.01.053-.012.052-.012.052-.013.052-.014.051-.014.052-.014.051-.016.05-.016.051-.016.05-.017.05-.018.05-.018.049-.019.05-.02.049-.02.048-.02.049-.022.048-.021.047-.023.048-.023.047-.023.047-.024.046-.025.046-.025.046-.026.046-.026.045-.027.045-.027.044-.028.044-.028.044-.029.043-.029.044-.03.042-.03.042-.031.042-.032.042-.031.041-.033.041-.033.04-.033.04-.034.04-.034.039-.035.039-.035.038-.036.038-.036.037-.036.037-.037.037-.038.036-.038.036-.038.035-.039.035-.039.034-.04.034-.04.033-.04.033-.041.033-.041.032-.042.031-.042.031-.042.03-.043.03-.043.03-.044.029-.044.028-.044.028-.045.027-.045.027-.045.026-.046.026-.046.025-.047.025-.046.024-.048.024-.047.023-.048.022-.048.022-.049.021-.048.021-.049.02-.05.019-.05.019-.05.019-.05.017-.051.018-.051.016-.051.016-.051.015-.052.015-.052.014-.052.013-.053.013-.053.012-.053.012-.053.011-.054.01-.054.009-.054.009-.055.008-.054.008-.055.007-.055.006-.056.005-.055.005-.056.004-.056.004-.057.002-.056.002-.056.001-.056.001-.056v-.056l-.001-.055-.002-.056-.002-.055-.003-.055-.004-.055-.004-.055-.005-.054-.006-.054-.006-.055-.007-.054-.008-.053-.008-.054-.009-.053-.01-.053-.01-.053-.011-.053-.012-.052-.012-.053-.013-.051-.013-.052-.014-.052-.015-.051-.015-.051-.016-.051-.017-.05-.017-.051-.017-.05-.019-.049-.019-.05-.019-.049-.02-.049-.021-.049-.021-.048-.022-.048-.022-.048-.023-.047-.024-.047-.024-.047-.024-.047-.025-.046-.026-.046-.026-.045-.027-.045-.027-.045-.028-.045-.028-.044-.029-.044-.03-.043-.03-.043-.03-.043-.031-.042-.031-.042-.032-.041-.032-.042-.033-.04-.034-.041-.033-.04-.035-.039-.034-.039-.036-.039-.035-.038-.036-.038-.037-.038-.037-.037-.037-.036-.038-.037-.039-.035-.038-.035-.039-.035-.04-.035-.04-.033-.041-.034-.04-.033-.042-.032-.041-.032-.042-.031-.043-.031-.043-.031-.043-.03-.043-.029-.044-.029-.045-.028-.044-.028-.045-.028-.046-.027-.046-.026-.046-.026-.046-.025-.047-.024-.047-.025-.048-.023-.048-.023-.048-.022-.048-.022-.049-.022-.049-.02-.049-.02-.05-.02-.05-.019-.051-.018-.05-.018-.051-.017-.051-.017-.052-.015-.052-.016-.052-.014-.052-.014-.053-.014-.052-.013-.054-.012-.053-.011-.054-.011-.054-.01-.054-.01-.054-.009-.055-.008-.055-.007-.055-.007-.055-.006-.056-.006-.056-.005-.056-.004-.056-.003-.056-.003-.057-.002-.056-.001h-.111Z"/></svg>
