<svg xmlns="http://www.w3.org/2000/svg" xml:space="preserve" fill-rule="evenodd" stroke-linecap="round" stroke-linejoin="round" stroke-miterlimit="1.5" clip-rule="evenodd" viewBox="0 0 38 38"><path fill="none" d="M38 4.597A4.6 4.6 0 0 0 33.403 0H4.597A4.6 4.6 0 0 0 0 4.597v28.806A4.6 4.6 0 0 0 4.597 38h28.806A4.6 4.6 0 0 0 38 33.403V4.597Z"/><path fill="#626262" d="M24.42 36.643c-.749-1.34-1.348-3.037-1.348-3.037l.259-.436-.318.085-.01-.414.234-.319-.279.149.041-.508.328-.405s-.215.15-.257.013c-.042-.138.264-1.571.264-1.571l-.123-.512-.305.283-.079-.356c0 .344-.373 1.037-.673 1.23-.301.194-1.06 1.168-1.06 1.168-.346-.142-1.287-3.031-1.287-3.031l-.685-1.094-3.661-4.395-2.119-8.202.741-5.113s2.553-7.736 1.979-5.916c.407 1.604 2.938 6.117 3.666 6.791.491.454 9.935 5.242 10.291 6.277.232.674 4.017 3.46 6.624 5.317v9.727a4.271 4.271 0 0 1-4.269 4.269h-.964l.183-.451-.387.41-.077-.586.743-.796-.878.656-.026-.559.84-.957-.953.604-.105-1.534-.51-.393.009.525-.798-.64.824.952c.155.283-.067 1.981-.188 2.769h-2.834c-.327-.845-.522-1.543-.522-1.543l.504-.626-.467.442.007-.481.386-.561-.425.285.02-.285.247-.676-.275.037-.117-.701-.657-.69.634 1.007-.108 1.468c0 .35-.088 1.834-.265 2.324H24.42Z"/><path fill="#ffe271" stroke="#626262" stroke-width=".5" d="M21.823 3.55a1.06 1.06 0 0 0-1.183-.918l-2.099.265c-.58.073-.991.603-.918 1.182l3.672 29.145c.073.58.603.991 1.182.918l2.1-.264a1.06 1.06 0 0 0 .918-1.183L21.823 3.55Z"/><path fill="#d0d0d0" stroke="#626262" stroke-width=".5" d="M17.663 26.362s-.156 1.001.233 1.24c.389.238.821 1.065.896 1.228.076.163 1.445.734 2.281.195l-.396-.394.654.32.253-.144-.628-.428s.763.469 1.132.418c0 0 .488-.213.738-.959l-.373-.018s.915-.523.945-1.096c.03-.572.433-2.091.335-2.42-.099-.329.01-1.062-.811-.062-.82 1-3.516.728-3.516.728l-1.743 1.392Z"/><path fill="#d0d0d0" stroke="#626262" stroke-width=".5" d="M14.837 21.442s-.834.942-.464 1.926c.371.985 1.947 3.564 3.859 3.416 1.911-.148 4.203-.606 4.987-3.446 0 0-.039-1.681-.317-2.184-.278-.503-.289-.741-.718.038-.43.778-.631 1.283-2.137 1.757 0 0 .029.517.374.582 0 0-.602-.209-.675-.516l-.51.135s.368.58.558.576c0 0-.864-.276-1.207-.608l-.73-.148.058.352-.565-1.191-1.636-.89-.877.201Z"/><path fill="#d0d0d0" stroke="#626262" stroke-width=".5" d="M13.666 12.585s-.264 3.722 1.514 5.011c0 0 .592 1.77 1.445 2.091 0 0-.583-.825-.533-1.444l.141-.043.253.43-.013-.406s1.075.607 1.319.554l.925 1.014-.428-.688.236-.046.207.308-.023-.198s1.37.293 1.985.276c.615-.017 1.928-.341 2.575-.821 0 0 .149-.032.008.34-.142.372-.9 2.122-1.775 2.592-.874.469-1.997 1.022-3.953 1.033-1.956.011-3.23-.85-3.899-2.129-.666-1.272-.873-1.626-1.084-3.04l1.1-4.834Z"/><path fill="#d0d0d0" stroke="#626262" stroke-width=".5" d="M15.844 4.236s.103 4.019.318 4.255c0 0-.541 1.463-.458 1.736 0 0 .069-.893.549-1.15 0 0 .226 1.533.431 1.664 0 0 .275 1.316.004 2.258l.395-.859.398.301s-.508.814-.269 1.642l.459-1.022.191.165-.126.281.246-.136s2.057 2.373 3.039 3.024l-.438-.484s1.272.519 1.73-.084c0 0 .287-.154.148.306-.14.46-1.165 1.984-3.432 2.008-3.184.034-5.949-3.551-6.345-5.377 0 0-.933-5.707 3.16-8.528Z"/></svg>
