<svg xmlns="http://www.w3.org/2000/svg" xml:space="preserve" fill-rule="evenodd" stroke-linecap="round" stroke-linejoin="round" stroke-miterlimit="1.5" clip-rule="evenodd" viewBox="0 0 38 38">
    <path fill="none" d="M38 4.597A4.6 4.6 0 0 0 33.403 0H4.597A4.6 4.6 0 0 0 0 4.597v28.806A4.6 4.6 0 0 0 4.597 38h28.806A4.6 4.6 0 0 0 38 33.403V4.597Z"/>
    <path fill="#626262" d="M5.716 23.742s9.588-5.729 9.92-6.933c.332-1.204 6.041 5.028 6.041 5.028l2.072 3.51s-.282 2.651-1.076 3.723c0 0-.18-.209-.252-.257-.072-.048-1.103-1.006-1.103-1.656l-.213.393-.401-.506.115.539s.311 2.207.126 2.839c-.184.631-1.42 3.233-2.125 3.742 0 0 .073-.237-.118-.599-.192-.361-.494-.893-.481-1.333.013-.44-.105-1.75-.105-1.75s-.312 3.701-1.957 4.639c0 0-.27-.796-.523-1.111-.253-.315-.623-1.561-.578-3.234.046-1.674.01-1.052.01-1.052l-.406.63s-.258 2.534-.67 3.033c-.411.498-2.045 2.704-2.515 2.862 0 0-.157-.86-.317-.951-.159-.09-.533-1.373-.347-1.918 0 0-1.288 2.372-2.779 3.096 0 0-.179-1.337-.382-1.576 0 0-.497-1.473.072-2.953l-.162-.756s-.239.683-.452.873c-.213.19-.8.841-.841 1.118 0 0-.533-.51-.643-1.727-.11-1.217-.038-3.192.889-4.42l-.799-3.293Z"/>
    <path fill="#626262" d="M5.097 24.215c1.071-.791 1.236-2.331 2.079-2.677 0 0 .439 1.668.18 2.106-.259.439.196 3.712.196 3.712s-2.504.736-2.455 2.24c.049 1.503-1.173-4.515 0-5.381Z"/>
    <path fill="#ffe271" stroke="#626262" stroke-width=".5" d="M16.802 4.389a1.058 1.058 0 0 0-1.023-1.092l-2.115-.069a1.057 1.057 0 0 0-1.092 1.023l-.964 29.36a1.059 1.059 0 0 0 1.023 1.092l2.115.069a1.059 1.059 0 0 0 1.093-1.023l.963-29.36Z"/>
    <path fill="#d0d0d0" d="M21.919 15.32s-2.845 1.707-6.283-2.723c0 0-2.413-4.018-2.591-4.505 0 0-.384-.77-.53.554 0 0-.033 1.499.074 1.802.107.303-2.087-4.971-1.307-8.921-.248-.083-1.469 1.628-1.824 2.741 0 0-.337 1.016.234 1.819l-.388-.926s-.197-.043-.245.165c-.049.207-.261.639-.105.895 0 0-.158-.033-.142.219.016.253-.409 2.602-.368 2.85.042.248.774 1.538.947 1.602 0 0-.76-.777-.798-.609 0 0-.632-.839-.687-2.009 0 0-.113-.551-.266.111-.154.662-.43 4.521.824 6.409s3.383 3.724 6.253 3.619c0 0-3.121.128-4.688-1.1-1.567-1.228-1.636-1.294-1.636-1.294s-.268-.085-.104.302c.165.388 1.649 2.589 2.866 3.295s1.053.898 2.152 1.128c0 0-1.434-.279-1.585-.402-.152-.124-.395.033-.002.298.392.265 2.536 1.53 3.695 1.636 0 0-.726.228-.917.272-.191.044-.267.259.092.367.359.108 2.045 1.099 2.395 1.084.35-.015.913-.488.967-.606l-.278.55.595.042s.405-.644.368-.684c0 0 .309.553.246.649 0 0 2.145-.691 2.33-1.127 0 0-.895 1.86-1.382 2.169 0 0 1.932.567 2.938-.608 1.006-1.175 1.364-1.36 1.277-2.154 0 0 .282 1.373-.021 1.999 0 0 .046.126.217.063.172-.064 1.697-.337 1.848-2.477.152-2.14-1.023-3.409-1.485-3.864-.461-.455-2.628-2.455-2.686-2.631Z"/>
    <path fill="#626262" d="m11.269 1.524.007.001.006.002-.018.093-.017.093-.015.094-.015.094-.013.095-.013.095-.011.095-.011.096-.009.096-.009.096-.008.096-.006.097-.006.097-.005.098-.004.097-.003.098-.003.098-.001.098-.001.098v.098l.001.099.002.098.002.099.003.098.004.099.005.098.005.099.006.098.006.098.008.099.008.098.008.098.009.098.01.098.01.097.011.098.012.097.012.097.012.096.013.096.014.097.014.095.014.096.015.095.015.094.016.094.016.094.016.093.017.093.017.093.017.092.018.091.018.091.019.09.018.09.019.089.039.176.039.174.04.17.041.168.042.165.041.162.042.158.042.154.042.151.042.147.042.142.041.139.041.134.04.13.04.125.038.12.038.115.037.11.035.104.034.099.033.094.031.087.03.082.027.076.05.132.041.106.031.078.021.049.006.013.003.006-.001-.002-.003-.01-.005-.015-.004-.017-.005-.018-.004-.02-.004-.022-.004-.023-.008-.049-.006-.055-.006-.06-.006-.063-.005-.067-.004-.07-.003-.073-.004-.075-.002-.076-.003-.078-.001-.078-.003-.156-.001-.152-.001-.145.001-.133v-.118l.003-.174.001-.065.007-.061.007-.057.008-.055.008-.051.008-.049.009-.047.009-.043.009-.041.009-.038.009-.036.01-.034.01-.031.01-.029.01-.026.011-.025.01-.022.011-.021.011-.018.011-.016.011-.015.011-.013.011-.011.011-.01.011-.008.011-.007.011-.005.011-.004.011-.002.011-.001.011-.001.011.001.011.002.011.004.01.003.01.005.011.006.01.006.01.007.009.007.01.008.009.009.009.008.018.019.016.019.015.019.014.019.012.019.01.017.009.014.013.023.004.008.01.025.013.031.016.035.02.04.022.044.024.049.028.053.029.056.067.125.076.139.084.151.091.161.097.172.103.18.107.186.111.193.114.196.116.199.234.4.232.395.224.378.208.35.185.312.276.461.104.174.08.103.081.1.08.098.079.097.08.093.079.092.079.09.079.088.079.085.078.084.078.081.077.08.078.077.077.076.077.073.076.072.076.07.076.068.075.066.075.064.075.063.075.06.074.059.073.057.074.056.073.054.072.052.072.05.072.049.072.048.071.045.07.044.07.043.07.041.069.04.069.038.068.037.068.035.068.034.067.033.066.031.066.03.066.028.065.028.064.026.064.025.064.023.063.022.062.022.062.02.062.019.06.018.061.016.059.016.06.015.058.013.058.013.058.012.057.01.056.01.055.009.055.008.055.007.054.007.053.005.052.005.052.004.052.003.05.003.05.002.049.001h.144l.046-.002.046-.002.045-.002.045-.003.043-.004.043-.003.043-.005.041-.005.041-.005.04-.005.039-.006.039-.007.037-.006.037-.007.036-.007.036-.008.034-.008.034-.007.065-.017.062-.016.058-.018.055-.017.052-.017.048-.018.044-.017.041-.016.037-.016.034-.014.03-.014.026-.012.022-.012.018-.009.025-.013.008-.005.002.004.002.006.007.012.011.014.013.017.015.02.019.022.021.024.023.026.054.058.063.066.071.073.078.079.086.085.091.09.097.095.101.099.214.206.224.215.229.218.228.216.431.408.192.181.169.16.14.134.057.056.048.047.046.045.049.05.052.054.056.06.058.064.03.034.031.035.031.036.031.038.032.039.032.04.033.041.033.042.032.044.034.045.033.046.033.047.033.048.034.05.033.051.033.052.033.054.033.054.032.056.032.057.032.058.032.06.03.061.031.062.03.063.029.065.029.065.028.067.027.068.027.07.025.071.025.072.024.073.023.074.022.076.021.077.019.078.019.08.017.08.017.082.007.042.007.041.007.042.007.043.006.043.006.043.006.043.005.044.005.044.004.044.004.044.004.045.003.046.003.045.002.046.003.046.001.047.001.047.001.047.001.047v.048l-.001.048-.001.048-.001.049-.002.049-.003.05-.002.049-.004.05-.003.05-.005.049-.005.049-.005.047-.006.048-.006.046-.006.046-.007.045-.008.045-.008.043-.008.044-.009.042-.009.042-.01.042-.01.04-.01.041-.011.039-.011.039-.012.038-.012.038-.012.037-.013.037-.013.036-.013.035-.013.035-.014.034-.014.034-.015.033-.014.033-.015.032-.016.031-.015.031-.016.031-.016.029-.016.03-.017.029-.016.028-.017.028-.017.027-.018.027-.017.026-.018.026-.018.026-.018.025-.018.024-.019.024-.018.024-.019.023-.018.022-.019.022-.019.022-.019.021-.039.041-.039.04-.039.037-.039.037-.04.034-.039.033-.04.032-.039.03-.04.028-.039.027-.039.026-.038.024-.039.024-.038.021-.037.021-.037.02-.036.018-.036.017-.034.016-.034.015-.034.015-.032.013-.031.012-.03.012-.029.01-.028.01-.053.017-.046.015-.075.022-.028.008-.02.007-.015.005-.015.004-.014.004-.014.002-.013.002h-.035l-.01-.002-.01-.002-.009-.002-.009-.003-.008-.004-.007-.003-.007-.005-.006-.004-.006-.004-.006-.005-.009-.01-.008-.009-.006-.008-.005-.008-.003-.006-.002-.005.014-.03.013-.031.012-.032.011-.033.011-.033.009-.035.01-.035.008-.037.007-.037.007-.037.007-.038.005-.039.005-.039.005-.04.004-.04.003-.04.003-.041.002-.041.002-.042.001-.041.001-.042v-.125l-.002-.083-.004-.082-.004-.081-.006-.08-.006-.078-.008-.076-.007-.073-.009-.071-.008-.066-.009-.063-.008-.059-.009-.055-.015-.093-.012-.071-.009-.044-.003-.016.004.037.003.036.002.035.002.034.001.034.001.033-.001.032-.001.031-.001.031-.002.031-.004.029-.003.03-.005.029-.005.028-.006.028-.006.028-.008.028-.008.027-.008.027-.01.027-.01.026-.011.027-.012.026-.013.027-.013.026-.014.026-.015.027-.015.026-.017.027-.017.027-.018.027-.019.027-.019.028-.021.027-.021.029-.022.028-.046.059-.05.06-.053.063-.057.066-.06.068-.063.071-.137.154-.152.17-.081.091-.085.097-.089.102-.092.107-.024.027-.024.027-.025.026-.024.025-.025.025-.026.024-.025.024-.026.022-.026.023-.027.022-.026.021-.027.02-.028.021-.027.019-.028.019-.027.018-.028.018-.029.018-.028.017-.029.016-.029.016-.029.015-.029.015-.029.014-.029.014-.03.014-.03.013-.029.012-.03.012-.03.012-.031.011-.03.011-.03.01-.03.01-.031.009-.03.009-.031.009-.03.008-.031.008-.03.008-.062.014-.061.012-.061.011-.061.01-.061.008-.06.007-.06.007-.06.004-.059.004-.059.003-.058.002-.057.001h-.057l-.056-.001-.055-.001-.054-.003-.053-.002-.052-.004-.051-.004-.05-.004-.048-.005-.047-.006-.046-.005-.044-.006-.043-.006-.041-.007-.077-.012-.07-.013-.063-.013-.054-.012-.046-.011-.036-.009-.027-.007-.022-.006.012-.007.011-.008.024-.018.024-.02.025-.022.025-.024.026-.026.026-.027.026-.03.027-.031.027-.032.028-.034.027-.036.028-.037.029-.038.028-.039.028-.04.029-.042.029-.042.028-.043.029-.044.058-.09.057-.092.057-.094.056-.095.055-.095.054-.095.053-.093.051-.093.049-.09.047-.087.044-.084.042-.08.075-.146.062-.121.046-.094.029-.059h.001l.005-.011.005-.01-.011.021-.006.01-.006.01-.008.011-.008.011-.009.011-.009.01-.01.011-.011.011-.023.022-.025.023-.028.023-.029.022-.032.023-.034.024-.035.023-.037.023-.039.024-.04.023-.042.024-.044.024-.044.023-.046.024-.047.023-.047.024-.049.023-.049.024-.051.023-.102.046-.104.045-.104.045-.105.043-.105.042-.103.04-.101.039-.098.037-.095.035-.091.033-.085.031-.08.028-.139.048-.106.036-.069.023-.024.008.003-.005.002-.006.002-.006.001-.006v-.008l.001-.007-.001-.009v-.009l-.003-.019-.004-.021-.006-.022-.007-.024-.008-.025-.009-.026-.011-.027-.01-.028-.012-.028-.012-.028-.026-.057-.026-.055-.026-.053-.025-.049-.022-.043-.034-.064-.012-.021v-.001l-.001-.002.001.003.001.002v.009l-.001.006-.002.006-.004.015-.007.017-.008.02-.01.022-.012.024-.013.025-.014.027-.031.058-.034.061-.036.062-.036.061-.036.06-.063.104-.046.074-.017.028-.595-.042.275-.545.003-.005-.003.005-.003.007-.01.014-.012.016-.015.017-.017.019-.019.02-.022.022-.024.022-.025.023-.028.025-.029.024-.03.026-.032.025-.034.026-.034.025-.036.026-.036.025-.037.024-.037.025-.039.023-.038.022-.039.022-.038.02-.039.019-.038.017-.039.016-.018.007-.019.007-.019.006-.018.006-.019.005-.018.005-.018.004-.017.003-.018.003-.017.003-.017.001-.016.001h-.018l-.019-.001-.021-.003-.023-.004-.024-.006-.027-.006-.027-.008-.03-.009-.031-.011-.032-.011-.034-.012-.034-.014-.037-.014-.037-.015-.078-.033-.081-.037-.085-.039-.088-.041-.091-.044-.093-.045-.094-.046-.095-.048-.095-.048-.191-.098-.187-.096-.179-.092-.167-.086-.079-.039-.073-.036-.069-.034-.064-.029-.058-.027-.052-.022-.023-.009-.021-.008-.02-.007-.018-.006-.032-.01-.03-.011-.027-.012-.026-.012-.022-.012-.021-.013-.009-.007-.009-.006-.009-.007-.007-.007-.008-.006-.006-.007-.007-.007-.006-.007-.005-.007-.005-.007-.004-.007-.004-.007-.003-.007-.003-.007-.003-.007-.002-.007-.001-.007-.002-.007v-.007l-.001-.006v-.007l.001-.007v-.007l.002-.006.001-.007.002-.006.005-.013.006-.012.008-.012.009-.012.01-.01.011-.011.012-.009.014-.009.014-.008.015-.008.016-.006.017-.006.017-.004.042-.011.053-.014.061-.017.068-.019.15-.045.156-.047.147-.045.124-.038.116-.036-.027-.003-.028-.003-.056-.007-.058-.009-.059-.011-.06-.012-.062-.014-.062-.015-.063-.016-.065-.018-.065-.018-.066-.02-.067-.022-.067-.022-.068-.023-.069-.025-.069-.025-.07-.026-.07-.027-.07-.028-.071-.029-.07-.029-.071-.03-.071-.031-.071-.031-.071-.032-.071-.032-.07-.033-.071-.033-.07-.033-.069-.034-.138-.067-.136-.068-.133-.069-.129-.068-.126-.067-.122-.066-.117-.064-.112-.063-.105-.06-.1-.058-.093-.055-.086-.051-.078-.047-.069-.043-.061-.038-.052-.033-.041-.028-.018-.012-.017-.013-.017-.012-.015-.011-.014-.012-.014-.012-.012-.011-.012-.011-.011-.011-.011-.011-.009-.01-.009-.011-.008-.01-.007-.01-.007-.009-.006-.01-.005-.009-.005-.009-.004-.009-.003-.009-.003-.008-.002-.008-.002-.008-.001-.008-.001-.007v-.007l.001-.007.001-.006.001-.007.002-.006.002-.006.003-.005.003-.005.003-.005.004-.005.004-.004.005-.004.005-.004.005-.003.005-.003.006-.003.006-.003.006-.002.006-.001.013-.003.014-.001h.015l.015.001.015.004.015.004.015.006.008.004.007.004.008.004.007.005.008.005.007.006.008.006.01.006.011.006.013.007.015.006.017.007.037.014.043.015.048.016.053.016.056.016.06.016.063.017.066.016.068.017.069.017.07.017.142.032.14.031.134.029.125.026.111.023.164.034.062.012-.099-.022-.093-.021-.044-.011-.042-.01-.041-.011-.039-.011-.038-.011-.037-.01-.035-.011-.034-.011-.034-.011-.032-.011-.031-.012-.03-.011-.029-.012-.029-.012-.027-.011-.027-.013-.026-.012-.026-.012-.025-.013-.025-.013-.024-.013-.024-.014-.048-.027-.046-.029-.047-.031-.047-.031-.047-.033-.049-.035-.051-.037-.109-.078-.059-.042-.063-.044-.067-.047-.072-.049-.077-.051-.082-.053-.089-.057-.095-.059-.103-.061-.11-.065-.029-.017-.028-.017-.029-.018-.029-.018-.029-.019-.029-.02-.058-.04-.058-.042-.059-.044-.059-.046-.059-.047-.059-.049-.059-.051-.059-.052-.059-.053-.059-.055-.059-.055-.059-.057-.059-.058-.059-.059-.058-.06-.058-.06-.058-.062-.057-.062-.057-.063-.057-.063-.056-.063-.056-.064-.055-.065-.055-.064-.054-.065-.053-.065-.053-.065-.052-.064-.051-.065-.051-.064-.05-.064-.049-.064-.048-.063-.047-.062-.046-.062-.045-.061-.044-.061-.086-.118-.08-.115-.076-.11-.071-.105-.065-.099-.059-.092-.054-.086-.047-.078-.021-.036-.02-.034-.018-.031-.016-.03-.014-.027-.012-.024-.011-.022-.009-.02-.014-.035-.012-.032-.009-.03-.007-.027-.006-.025-.003-.023-.001-.01-.001-.01v-.019l.001-.008.001-.008.001-.008.002-.007.002-.006.002-.006.002-.006.003-.006.003-.005.003-.004.004-.005.003-.004.008-.006.009-.006.009-.005.009-.003.009-.003.01-.001.01-.001.009-.001h.009l.009.001.016.002.012.002.011.003.006.006.03.024.069.056.126.101.199.158.289.229.397.312.52.408.037.028.037.028.039.028.038.027.039.027.04.026.04.025.041.026.041.024.041.025.042.023.043.024.042.023.044.022.043.022.044.022.044.021.045.021.045.02.045.02.046.019.046.02.046.018.046.019.047.017.047.018.047.017.047.017.048.016.047.016.048.016.048.015.048.015.049.014.097.028.097.027.097.025.098.024.098.023.097.021.098.021.097.019.096.018.097.017.095.015.095.015.094.014.093.013.092.012.091.011.09.01.088.009.087.008.085.008.084.007.082.006.079.006.078.005.076.004.074.004.071.003.135.005.124.004.113.002h.058l.009.001h.199l.066-.002.029-.001h.003l.036-.001-.039.001-.04.001-.059.001-.073.001h-.088l-.043-.001-.057-.001-.066-.002-.065-.003-.065-.003-.064-.004-.065-.005-.064-.005-.064-.006-.063-.007-.064-.007-.063-.008-.062-.008-.063-.01-.062-.009-.062-.011-.061-.011-.062-.011-.061-.012-.061-.013-.06-.013-.06-.014-.06-.015-.06-.015-.059-.016-.059-.016-.059-.016-.059-.018-.058-.017-.058-.019-.058-.019-.057-.019-.057-.02-.057-.02-.056-.021-.057-.022-.056-.021-.055-.023-.056-.023-.055-.023-.054-.024-.055-.024-.054-.025-.054-.025-.054-.026-.053-.026-.053-.026-.053-.027-.052-.028-.053-.028-.052-.028-.051-.029-.051-.029-.052-.029-.05-.03-.051-.03-.05-.031-.05-.031-.049-.031-.049-.032-.049-.032-.049-.033-.048-.033-.049-.033-.047-.033-.048-.034-.047-.035-.047-.034-.046-.035-.047-.035-.046-.036-.045-.035-.046-.037-.045-.036-.045-.037-.044-.037-.044-.037-.044-.037-.044-.038-.043-.038-.043-.039-.043-.038-.042-.039-.042-.039-.042-.039-.041-.04-.082-.079-.081-.081-.079-.081-.079-.082-.077-.083-.075-.084-.075-.084-.073-.085-.072-.085-.071-.086-.07-.086-.068-.087-.067-.087-.066-.087-.064-.088-.064-.088-.062-.088-.06-.089-.06-.088-.029-.045-.028-.045-.028-.046-.028-.047-.027-.047-.026-.048-.026-.049-.025-.049-.025-.05-.024-.05-.024-.051-.023-.052-.023-.052-.022-.053-.022-.053-.021-.053-.021-.055-.021-.054-.019-.055-.02-.056-.019-.056-.018-.056-.018-.057-.018-.057-.017-.057-.016-.058-.017-.058-.015-.059-.016-.059-.015-.059-.014-.059-.014-.06-.014-.06-.013-.06-.013-.06-.012-.061-.013-.061-.011-.06-.012-.062-.011-.061-.01-.061-.01-.062-.02-.123-.018-.123-.016-.124-.015-.124-.014-.123-.013-.124-.011-.123-.011-.123-.009-.122-.008-.121-.007-.121-.006-.12-.005-.119-.004-.118-.003-.116-.002-.115-.001-.114-.001-.112v-.11l.001-.108.002-.107.002-.104.003-.102.004-.1.004-.098.004-.094.005-.093.006-.089.006-.086.006-.084.006-.08.007-.077.007-.074.007-.07.008-.067.007-.063.008-.059.007-.055.008-.05.007-.047.008-.042.007-.038.008-.034.014-.058.007-.027.007-.025.007-.024.006-.021.007-.021.007-.019.007-.017.006-.016.007-.015.006-.013.006-.012.007-.011.006-.009.006-.008.006-.008.006-.006.006-.005.005-.004.006-.003.005-.002.006-.001.005-.001h.006l.005.002.005.001.005.003.005.003.004.004.005.004.004.005.009.012.008.012.008.014.007.016.007.015.006.016.006.016.005.016.009.029.006.025.005.022.003.055.004.054.005.053.005.053.006.053.007.052.007.051.009.051.008.051.01.049.01.049.01.049.011.048.012.047.011.047.013.045.013.046.013.044.013.044.014.043.014.043.014.042.015.04.015.041.015.039.015.039.015.038.016.037.03.072.031.068.031.065.031.062.029.057.029.055.028.05.027.046.025.043.024.038.021.034.02.03.031.047.02.029.007.01.003-.008.001-.003.002-.002.002-.003.002-.002.003-.002.003-.001.006-.002.007-.001h.008l.008.002.01.002.01.004.011.004.012.006.012.006.013.007.014.008.014.009.029.02.032.023.033.025.034.027.035.028.036.031.037.031.036.032.037.033.036.033.07.065.065.062.041.04.019.024.015.017.014.017.013.015.013.013.012.012.012.011.01.009.011.007.009.006.008.004-.032-.033-.038-.038-.049-.048-.017-.016-.012-.016-.032-.043-.035-.049-.036-.052-.037-.055-.038-.059-.038-.061-.04-.063-.039-.065-.04-.067-.04-.067-.039-.068-.038-.068-.038-.068-.036-.067-.036-.066-.034-.065-.032-.062-.03-.06-.027-.058-.026-.054-.022-.05-.02-.047-.017-.042-.007-.019-.006-.018-.005-.017-.005-.015-.003-.014-.003-.012-.001-.013-.001-.016V9.22l.001-.025.001-.027.005-.061.007-.071.008-.079.011-.087.012-.094.013-.1.015-.106.032-.224.035-.236.037-.243.073-.48.034-.224.03-.206.013-.094.012-.087.01-.08.008-.071.007-.062.004-.052.002-.022V6.47l.001-.017-.001-.013-.001-.023v-.021l.001-.02.002-.018.002-.017.003-.015.004-.014.005-.013.004-.011.006-.011.006-.009.006-.008.006-.008.007-.006.007-.005.007-.005.007-.004.007-.004.007-.002.007-.002.006-.002.007-.001.012-.001.01-.001.007.001.007.001-.007-.012-.007-.013-.006-.012-.005-.013-.005-.013-.005-.014-.004-.013-.003-.014-.004-.014-.002-.014-.003-.014-.002-.014-.001-.015-.001-.014-.001-.03v-.03l.001-.031.003-.03.004-.031.004-.032.006-.031.006-.031.008-.031.007-.031.009-.031.008-.031.009-.03.018-.059L9 5.517l.018-.054.016-.05.014-.046.006-.021.005-.02.004-.019.006-.017.007-.016.007-.015.008-.013.008-.013.009-.011.009-.01.01-.008.01-.008.01-.007.01-.007.011-.005.01-.004.011-.004.01-.003.011-.003.01-.002.009-.001.01-.002.018-.001.015.001h.013l.01.002.009.001.094.224v.001l.008.039.009.039.009.039.011.039.011.039.012.04.014.039.014.04.016.039.016.039.018.039.018.039.02.039.021.039.023.039.023.038.025.038.026.038-.294-.702-.007-.038-.006-.038-.006-.038-.004-.038-.004-.037-.004-.038-.003-.037-.002-.036-.001-.036-.001-.036-.001-.035v-.034l.001-.034.001-.034.001-.033.002-.032.002-.032.003-.031.006-.06.007-.057.007-.053.009-.05.008-.047.009-.042.008-.038.008-.034.007-.03.007-.024.01-.034.003-.011.018-.053.018-.053.02-.055.021-.055.022-.055.023-.056.024-.057.025-.057.025-.058.027-.058.028-.058.028-.059.029-.059.03-.059.031-.059.031-.059.032-.059.032-.059.033-.059.034-.059.033-.059.035-.058.034-.058.035-.058.035-.057.035-.056.036-.057.035-.055.036-.055.036-.054.035-.054.036-.052.036-.052.035-.051.036-.05.035-.048.035-.048.034-.047.035-.045.033-.044.034-.043.033-.041.032-.04.032-.038.032-.037.031-.036.03-.033.029-.032.029-.031.028-.028.027-.027.026-.024.025-.023.024-.021.023-.018.023-.017.021-.014.02-.012.009-.005.01-.005.009-.004.008-.003.009-.003.008-.002.007-.002.008-.001h.013Zm-.683 1.571-.033.054-.033.055-.033.055-.032.056-.032.055-.032.056-.031.056-.031.056-.03.055-.029.056-.029.055-.028.056-.027.055-.026.054-.026.054-.025.053-.023.053-.023.053-.022.051-.02.05-.02.05-.018.048-.018.048-.016.046-.015.046-.001.003-.006.023-.005.016-.005.022-.006.027-.007.03-.007.034-.007.037-.006.04-.007.044-.005.046-.005.05-.002.023-.002.026-.001.026-.001.026-.001.027-.001.027v.028l.001.028.001.028.001.028.001.029.002.028.003.029.003.029.004.029.004.029.002.011.272.65.022.063.013.065.004.067-.005.066-.013.065-.022.063-.03.06-.038.054-.045.05-.051.043-.056.036-.06.028-.064.019-.066.011-.066.003-.067-.007-.064-.015-.063-.024-.058-.032-.042-.031-.032.048-.043.049-.001.001-.003.034-.007.071-.009.076-.011.084-.012.09-.013.097-.031.208-.034.226-.073.48-.036.242-.035.234-.032.222-.014.103-.013.097-.012.091-.01.082-.008.074-.006.062-.004.052v.012l.01.025.015.036.019.042.022.047.025.052.028.055.029.058.032.061.033.062.035.064.036.064.037.065.037.065.037.064.038.063.037.061.037.06.036.056.035.054.033.05.032.045.029.041.015.021.043.042.04.039.033.035.044.05.036.055.029.059.021.063.012.065.003.066-.005.066-.014.065-.022.062-.03.059-.038.054-.045.049-.05.042-.056.036-.06.027-.063.02-.065.011-.066.002-.066-.006-.065-.015-.062-.023-.008-.004-.051-.027-.028-.017-.04-.029-.033-.027-.028-.026-.025-.024-.023-.024-.021-.024-.021-.025-.022-.026-.001-.002-.015-.015-.062-.058-.066-.061-.033-.03-.033-.03-.033-.029-.032-.028-.031-.026-.029-.024-.017-.013-.018-.002-.063-.014-.061-.023-.057-.03-.053-.037-.048-.044-.042-.05-.01-.013-.026-.037-.037-.055-.023-.036-.025-.04-.027-.044-.029-.049-.011-.019v.031l.001.108.001.11.002.112.003.112.004.114.005.115.005.116.007.117.008.117.009.118.01.118.011.119.012.118.013.119.015.118.016.119.017.118.018.118.01.057.01.059.01.058.011.058.011.057.012.058.011.057.013.057.012.057.013.056.013.056.014.056.014.055.014.055.015.055.015.054.015.053.016.054.016.052.017.053.017.052.017.051.018.051.018.05.018.05.019.049.02.048.019.048.02.048.021.046.02.046.022.046.021.044.022.044.022.044.023.042.023.042.023.041.024.04.024.04.024.038.025.039.056.083.058.084.059.084.06.084.061.083.063.083.064.083.064.082.066.082.068.081.068.081.069.081.071.079.072.079.073.079.073.077.076.077.076.076.078.076.038.037.04.037.039.037.04.036.04.036.041.036.04.036.041.036.041.035.042.035.042.035.042.034.042.034.043.034.042.034.043.033.044.033.043.033.044.032.044.032.045.032.044.031.045.031.045.031.046.03.045.03.046.029.046.03.047.029.046.028.047.028.047.028.048.027.047.027.048.027.049.026.048.026.049.025.048.025.05.025.049.024.05.024.049.023.051.023.05.022.051.022.05.022.051.021.052.021.051.02.052.02.052.019.053.019.052.018.053.018.053.017.053.017.054.016.054.016.054.016.054.015.055.014.055.014.055.013.055.013.056.012.055.012.056.011.057.011.056.01.057.009.057.009.058.009.057.007.058.008.058.006.059.006.058.006.059.005.059.004.06.004.06.003.06.003.06.001.051.001.038.001h.084l.069-.001.055-.001.036-.001.037-.001.068.003.067.012.065.02.062.03.057.037.051.045.045.052.037.057.029.062.021.065.011.067.002.068-.007.068-.016.066-.025.064-.034.059-.041.054-.049.049-.054.041-.06.033-.063.025-.066.016-.068.007-.038.001h-.004l-.028.001-.073.002h-.214l-.009-.001h-.056l-.118-.002-.129-.004-.14-.005-.075-.004-.076-.004-.079-.004-.081-.005-.083-.006-.085-.007-.087-.007-.089-.008-.09-.009-.092-.009-.094-.011-.095-.011-.096-.013-.097-.013-.098-.014-.1-.016-.1-.016-.101-.018-.102-.019-.103-.02-.102-.022-.104-.022-.103-.024-.104-.026-.104-.027-.104-.028-.103-.03-.052-.016-.052-.016-.052-.016-.052-.017-.051-.017-.051-.018-.052-.018-.051-.019-.051-.019-.051-.019-.051-.02-.05-.021-.051-.021-.05-.021-.05-.022-.049-.023-.05-.023-.049-.023-.049-.024-.049-.025-.048-.025-.048-.026-.048-.026-.047-.027-.047-.028-.047-.028-.036-.022.036.043.054.061.054.061.054.06.054.06.055.059.055.058.055.058.055.056.055.056.055.054.055.053.055.052.055.051.054.049.054.047.054.046.053.044.053.043.052.04.052.039.051.037.051.035.023.016.025.016.024.015.023.015.024.014.025.015.113.066.107.065.1.062.094.059.087.057.081.054.076.051.07.049.066.046.061.044.11.078.049.036.046.032.043.03.04.028.039.025.037.023.037.022.017.009.018.01.018.009.019.01.019.009.019.009.02.009.021.009.021.009.023.009.023.009.025.009.026.009.027.009.028.009.03.009.032.009.033.009.034.01.037.009.038.01.038.009.087.02.096.021.065.019.062.027.058.036.052.043.046.05.039.055.031.061.023.064.013.066.005.068-.004.067-.014.067-.023.064-.031.06-.039.056-.046.05-.026.021.012.007.067.032.068.032.068.032.068.031.068.031.068.031.068.03.067.029.068.029.067.027.067.028.067.026.066.026.065.024.065.024.063.023.063.021.062.021.061.019.06.018.059.017.057.016.055.014.054.013.053.012.05.01.049.008.046.008.046.006.019.002.024.002.067.012.066.02.062.029.057.038.052.045.045.051.038.057.029.062.021.065.011.068.003.068-.007.068-.017.067-.025.064-.034.059-.041.055-.049.048-.055.041-.059.033-.064.025-.087.027.165.085.187.096.189.097.094.047.093.047.091.046.09.044.087.041.084.04.08.036.076.034.071.03.031.013.031.012.03.012.027.01.024.008.022.008.019.006.013.003h.001l.007-.003.009-.003.009-.003.008-.003.024-.01.024-.011.026-.012.027-.015.029-.015.029-.017.029-.018.029-.019.03-.02.029-.02.029-.02.028-.021.026-.021.026-.02.025-.02.022-.02.021-.018.019-.017.016-.016.014-.013.01-.011.004-.004.01-.017.042-.053.05-.047.055-.04.06-.032.064-.023.067-.015.068-.005.068.004.067.013.065.022.06.031.039.027.009-.012.047-.049.053-.041.057-.034.062-.026.065-.017.066-.009h.067l.066.009.065.018.061.027.058.034.052.042.046.048.04.054.001.003.013.024.001-.001.014.027.037.069.025.048.028.054.025.052.012-.004.088-.032.093-.034.095-.036.098-.038.1-.039.1-.04.101-.042.1-.042.099-.043.097-.044.046-.021.046-.022.045-.021.043-.022.043-.021.041-.022.039-.021.038-.02.036-.02.034-.02.031-.019.03-.019.026-.017.024-.017.021-.015.018-.014.015-.012.01-.009.003-.003.021-.037.042-.053.048-.047.054-.041.059-.033.063-.024.066-.016.067-.007.068.003.067.011.064.02.061.029.057.037.051.044.045.051.038.057.029.06.021.065.012.066.003.068-.006.067-.015.066-.023.063-.011.023-.008.016-.027.056-.048.096-.064.125-.076.148-.043.083-.046.086-.048.09-.051.092-.052.096-.054.096-.056.099-.058.098-.058.099-.06.099-.06.097-.061.095-.002.003.035.001.049.001h.049l.05-.001.05-.002.051-.002.051-.003.05-.004.051-.006.051-.006.051-.007.051-.008.051-.009.05-.01.052-.012.023-.006.025-.006.025-.007.024-.007.025-.007.024-.007.024-.008.024-.009.024-.008.024-.009.023-.009.023-.009.024-.01.023-.01.022-.01.023-.011.023-.011.022-.011.022-.012.022-.012.021-.012.022-.013.021-.013.021-.014.021-.013.02-.015.021-.014.02-.015.02-.015.02-.016.019-.016.02-.017.019-.017.019-.017.018-.018.019-.018.018-.019.018-.019.018-.02.02-.023.092-.107.09-.103.087-.099.082-.093.153-.17.137-.153.061-.07.058-.066.054-.062.049-.058.045-.054.041-.053.018-.023.018-.023.016-.023.015-.021.015-.021.013-.021.013-.019.011-.019.011-.017.009-.018.009-.016.008-.016.008-.016.006-.015.007-.015.005-.014.005-.014.005-.014.004-.015.004-.014.003-.014.003-.015.003-.016.003-.016.002-.016.001-.018.002-.018.001-.019v-.021l.001-.021-.001-.023v-.024l-.002-.025-.002-.027-.002-.027-.003-.033-.003-.066.007-.066.015-.065.023-.062.032-.058.038-.053.046-.048.051-.042.057-.034.061-.027.063-.018.066-.01.066-.001.066.007.064.017.061.024.058.033.053.039.047.047.04.052.034.057.025.062.017.063.004.018.009.05.014.077.016.099.009.059.009.063.01.067.009.072.008.075.009.079.008.081.007.084.006.087.005.089.004.09.002.091v.141l-.001.047-.001.047-.002.035.015-.009.03-.019.03-.02.03-.021.031-.022.03-.023.031-.024.03-.026.031-.026.03-.028.03-.03.03-.03.031-.033.014-.015.015-.017.014-.017.015-.018.014-.018.015-.018.014-.018.014-.02.014-.019.014-.02.014-.02.014-.021.014-.021.013-.022.014-.022.013-.022.013-.023.013-.024.013-.024.012-.024.013-.025.012-.025.012-.026.012-.027.012-.027.012-.027.011-.028.011-.029.011-.029.011-.03.01-.03.01-.031.01-.032.01-.032.009-.033.009-.033.009-.034.009-.035.008-.035.008-.036.007-.037.008-.037.006-.038.007-.039.006-.039.006-.04.005-.041.005-.041.005-.042.004-.043.004-.044.004-.044.003-.045.002-.045.002-.045.002-.045.001-.044.001-.044.001-.043v-.043l-.001-.043v-.043l-.002-.042-.001-.042-.002-.041-.002-.042-.003-.041-.003-.04-.003-.04-.004-.041-.004-.039-.004-.04-.005-.039-.005-.039-.005-.038-.005-.038-.006-.038-.007-.038-.006-.037-.007-.036-.014-.075-.016-.072-.016-.071-.018-.069-.019-.069-.019-.068-.021-.066-.021-.065-.022-.065-.023-.063-.024-.062-.024-.06-.025-.06-.026-.059-.026-.058-.027-.056-.027-.056-.027-.054-.029-.053-.028-.052-.029-.052-.029-.05-.029-.049-.03-.048-.03-.046-.029-.046-.03-.045-.03-.043-.03-.043-.03-.041-.03-.041-.03-.039-.029-.038-.03-.038-.029-.036-.029-.035-.028-.034-.028-.033-.028-.031-.026-.03-.054-.06-.051-.054-.048-.05-.045-.045-.042-.042-.045-.045-.056-.053-.138-.133-.168-.159-.191-.181-.432-.408-.228-.217-.23-.219-.226-.215-.215-.208-.103-.1-.098-.096-.093-.092-.087-.087-.081-.082-.074-.076-.009-.009-.03.011-.061.02-.064.021-.068.02-.072.019-.074.019-.04.009-.04.009-.04.008-.042.009-.043.008-.043.007-.044.007-.045.007-.046.007-.046.006-.048.005-.048.005-.049.005-.05.004-.051.003-.051.003-.052.002-.053.001-.054.001h-.109l-.056-.001-.057-.003-.057-.002-.058-.004-.058-.005-.06-.005-.06-.006-.06-.007-.061-.008-.062-.01-.063-.01-.063-.011-.064-.012-.064-.013-.065-.014-.065-.015-.066-.016-.067-.018-.067-.019-.068-.019-.068-.022-.068-.022-.069-.023-.07-.025-.07-.026-.071-.027-.071-.029-.071-.03-.072-.031-.072-.033-.073-.034-.073-.036-.074-.037-.073-.038-.075-.04-.074-.042-.075-.042-.076-.045-.076-.046-.076-.048-.076-.049-.077-.051-.077-.052-.077-.054-.078-.056-.078-.058-.078-.059-.078-.061-.079-.062-.079-.065-.079-.066-.08-.068-.08-.07-.08-.072-.08-.073-.081-.076-.08-.077-.081-.08-.081-.081-.082-.083-.081-.086-.082-.087-.082-.089-.082-.092-.083-.093-.082-.096-.083-.097-.083-.1-.083-.102-.083-.104-.082-.105-.035-.051-.104-.174-.276-.462-.186-.312-.208-.351-.224-.379-.233-.396-.235-.401-.117-.2-.114-.197-.111-.193-.108-.188-.104-.181-.098-.173-.079-.141v.03l.001.142.001.149.002.152.002.075.002.075.003.073.003.071.004.068.003.065.005.061.005.056.005.05.005.044.005.038.002.012.003.011.001.007.001.003.001.004.003.009.014.052.001.002.009.057.002.059-.005.058-.011.057v.001l-.021.062-.029.059-.036.055-.043.049-.049.044-.054.036-.059.03-.062.021-.064.013-.066.004-.065-.004-.065-.012-.062-.021-.059-.029-.054-.037h-.001l-.04-.035-.037-.039-.032-.042-.028-.046-.011-.02-.015-.035-.025-.059-.034-.085-.043-.111-.051-.136-.028-.078-.031-.084-.031-.09-.034-.096-.035-.101-.036-.107-.038-.112-.038-.118-.04-.122-.04-.128-.041-.132-.042-.137-.042-.141-.042-.146-.043-.149-.043-.154-.043-.158-.043-.161-.042-.165-.042-.168-.042-.171-.041-.175-.04-.177-.039-.18-.02-.091-.019-.092-.019-.092-.018-.093-.018-.094-.018-.094-.018-.095-.017-.095-.017-.095-.016-.097-.016-.096-.016-.097-.015-.098-.015-.098-.014-.098-.014-.098-.014-.099-.012-.1-.013-.099-.011-.1-.012-.101-.01-.1-.01-.101-.01-.101-.009-.101-.008-.102-.007-.101-.007-.102-.006-.102-.006-.102-.005-.102-.004-.102-.003-.102-.002-.103-.002-.102-.001-.102V3.35l.001-.103.001-.102.003-.102-.033.052Zm6.936 20.044-.012.021-.004.007.023-.039-.007.011ZM12.109 10.59l.005.014-.005-.015v.001ZM8.898 6.718l.03.002h.006l-.049-.004.013.002Z"/>
</svg>
